<svg width="17" height="17" viewBox="0 0 17 17" fill="none" xmlns="http://www.w3.org/2000/svg">
<g clip-path="url(#clip0_199_518)">
<path d="M10.625 14.1667H3.54167C2.6027 14.1655 1.70252 13.792 1.03857 13.1281C0.374625 12.4641 0.00112473 11.564 0 10.625L0 3.54167C0.00112473 2.6027 0.374625 1.70252 1.03857 1.03857C1.70252 0.374625 2.6027 0.00112473 3.54167 0L10.625 0C11.564 0.00112473 12.4641 0.374625 13.1281 1.03857C13.792 1.70252 14.1655 2.6027 14.1667 3.54167V10.625C14.1655 11.564 13.792 12.4641 13.1281 13.1281C12.4641 13.792 11.564 14.1655 10.625 14.1667ZM3.54167 1.41667C2.97808 1.41667 2.43758 1.64055 2.03906 2.03906C1.64055 2.43758 1.41667 2.97808 1.41667 3.54167V10.625C1.41667 11.1886 1.64055 11.7291 2.03906 12.1276C2.43758 12.5261 2.97808 12.75 3.54167 12.75H10.625C11.1886 12.75 11.7291 12.5261 12.1276 12.1276C12.5261 11.7291 12.75 11.1886 12.75 10.625V3.54167C12.75 2.97808 12.5261 2.43758 12.1276 2.03906C11.7291 1.64055 11.1886 1.41667 10.625 1.41667H3.54167ZM17 13.4583V4.25C17 4.06214 16.9254 3.88197 16.7925 3.74913C16.6597 3.61629 16.4795 3.54167 16.2917 3.54167C16.1038 3.54167 15.9236 3.61629 15.7908 3.74913C15.658 3.88197 15.5833 4.06214 15.5833 4.25V13.4583C15.5833 14.0219 15.3594 14.5624 14.9609 14.9609C14.5624 15.3594 14.0219 15.5833 13.4583 15.5833H4.25C4.06214 15.5833 3.88197 15.658 3.74913 15.7908C3.61629 15.9236 3.54167 16.1038 3.54167 16.2917C3.54167 16.4795 3.61629 16.6597 3.74913 16.7925C3.88197 16.9254 4.06214 17 4.25 17H13.4583C14.3973 16.9989 15.2975 16.6254 15.9614 15.9614C16.6254 15.2975 16.9989 14.3973 17 13.4583Z" fill="#EDEDED"/>
</g>
<defs>
<clipPath id="clip0_199_518">
<rect width="17" height="17" fill="white"/>
</clipPath>
</defs>
</svg>
