<svg width="21" height="20" viewBox="0 0 21 20" fill="none" xmlns="http://www.w3.org/2000/svg">
<path d="M3.43971 17.8319L1.86877 0.211426H19.1313L17.5588 17.8292L10.4896 19.7891L3.43971 17.8319Z" fill="#1572B6"/>
<path d="M10.5001 18.2909L16.2125 16.7072L17.5564 1.65186H10.5001V18.2909Z" fill="#33A9DC"/>
<path d="M10.5001 8.03568H13.3598L13.5573 5.82271H10.5001V3.66162H15.9192L15.8673 4.24146L15.3361 10.1968H10.5001V8.03568Z" fill="#EDEDED"/>
<path d="M10.513 13.6485L10.5034 13.6513L8.09671 13.0014L7.94281 11.2778H5.77374L6.0764 14.6711L10.5031 15.8997L10.513 15.8969V13.6485Z" fill="#EBEBEB"/>
<path d="M13.1761 10.1055L12.9158 12.9995L10.5055 13.6502V15.8986L14.9358 14.6708L14.9683 14.3056L15.3442 10.1055H13.1761Z" fill="#EDEDED"/>
<path d="M10.5075 3.66162V5.82271H5.28749L5.24421 5.33709L5.14577 4.24146L5.09406 3.66162H10.5075ZM10.5001 8.036V10.1971H8.12374L8.08046 9.71146L7.98187 8.61584L7.93031 8.036H10.5001Z" fill="#EBEBEB"/>
</svg>
