<svg width="30" height="33" viewBox="0 0 30 33" fill="none" xmlns="http://www.w3.org/2000/svg">
<g clip-path="url(#clip0_45_801)">
<mask id="mask0_45_801" style="mask-type:luminance" maskUnits="userSpaceOnUse" x="0" y="0" width="30" height="33">
<path d="M29.9881 0.0412598H0.137329V32.0242H29.9881V0.0412598Z" fill="white"/>
</mask>
<g mask="url(#mask0_45_801)">
<path d="M17.3101 0.628481L27.5903 6.39736C29.0249 7.20236 29.9119 8.71218 29.9119 10.3488V21.7172C29.9119 23.3537 29.0249 24.8636 27.5903 25.6686L17.3101 31.4375C15.9153 32.2201 14.2101 32.2201 12.8153 31.4375L2.5351 25.6686C1.10058 24.8636 0.213501 23.3537 0.213501 21.7172V10.3488C0.213501 8.71218 1.10058 7.20236 2.5351 6.39736L12.8153 0.628481C14.2101 -0.154155 15.9153 -0.154155 17.3101 0.628481ZM1.92688 10.3948V21.7172C1.92688 22.7331 2.47857 23.6722 3.3736 24.1745L13.5078 29.8613C13.6391 29.9122 13.7789 29.9385 13.9205 29.9385C14.5513 29.9385 15.0627 29.4272 15.0627 28.7963V19.6448C15.0627 18.1533 14.2326 16.7858 12.9093 16.0977L12.1549 15.7055C11.977 15.6297 11.8013 15.5467 11.6284 15.4564L1.92688 10.3948ZM12.5553 14.4437C14.3761 15.3937 15.7541 15.3937 17.575 14.4437L27.4171 8.91844C27.1747 8.36351 26.7544 7.89 26.2044 7.58141L16.4716 2.12266C15.5977 1.63229 14.5276 1.63229 13.6538 2.12266L3.93943 7.58141C3.38949 7.89 2.96918 8.36351 2.72682 8.91844L12.5553 14.4437ZM15.0627 4.03938C17.2044 4.03938 18.9528 5.09194 19.0558 6.41457L19.0606 8.67975C19.0606 10.0597 17.2707 11.1784 15.0627 11.1784C12.8547 11.1784 11.0648 10.0597 11.0648 8.67975V6.41457C11.1726 5.09194 12.921 4.03938 15.0627 4.03938ZM15.0631 8.03724C16.9179 8.03724 18.4213 7.28548 18.4213 6.35814C18.4213 5.4308 16.9179 4.67903 15.0631 4.67903C13.2085 4.67903 11.7049 5.4308 11.7049 6.35814C11.7049 7.28548 13.2085 8.03724 15.0631 8.03724Z" fill="#5A45FF"/>
</g>
</g>
<defs>
<clipPath id="clip0_45_801">
<rect width="30" height="32.0896" fill="white"/>
</clipPath>
</defs>
</svg>
