<svg width="20" height="20" viewBox="0 0 20 20" fill="none" xmlns="http://www.w3.org/2000/svg">
<g clip-path="url(#clip0_38_125)">
<path d="M19.4902 9.1217L10.8783 0.510137C10.3827 0.0141992 9.57828 0.0141992 9.08188 0.510137L7.29375 2.29857L9.56219 4.56701C10.0895 4.38904 10.6939 4.50842 11.1141 4.92857C11.5364 5.35139 11.6548 5.96092 11.4725 6.48998L13.6588 8.67639C14.1877 8.49404 14.7981 8.61186 15.2203 9.03498C15.8109 9.62514 15.8109 10.5819 15.2203 11.1723C15.08 11.3127 14.9133 11.4241 14.7299 11.5001C14.5465 11.5761 14.3499 11.6153 14.1513 11.6153C13.9528 11.6153 13.7562 11.5761 13.5728 11.5001C13.3894 11.4241 13.2227 11.3127 13.0823 11.1723C12.8715 10.9613 12.7277 10.6926 12.6692 10.4001C12.6107 10.1076 12.64 9.80432 12.7534 9.52842L10.7147 7.48967L10.7144 12.8555C10.8623 12.9283 10.9973 13.0248 11.1142 13.1411C11.7045 13.7312 11.7045 14.6876 11.1142 15.279C10.5238 15.8692 9.56672 15.8692 8.97688 15.279C8.38657 14.6878 8.38657 13.7314 8.97688 13.1411C9.11831 12.9994 9.28652 12.8873 9.47172 12.8114V7.39592C9.28638 7.32017 9.11811 7.20801 8.97688 7.06607C8.52969 6.6192 8.42203 5.96295 8.65141 5.41357L6.415 3.17717L0.510002 9.08186C0.27177 9.32016 0.137939 9.64333 0.137939 9.98029C0.137939 10.3173 0.27177 10.6404 0.510002 10.8787L9.12203 19.4903C9.61797 19.9862 10.422 19.9862 10.9188 19.4903L19.4903 10.9187C19.7285 10.6804 19.8623 10.3572 19.8622 10.0202C19.8622 9.68321 19.7284 9.36003 19.4902 9.1217Z" fill="#F34F29"/>
</g>
<defs>
<clipPath id="clip0_38_125">
<rect width="20" height="20" fill="white"/>
</clipPath>
</defs>
</svg>
