<svg width="30" height="30" viewBox="0 0 30 30" fill="none" xmlns="http://www.w3.org/2000/svg">
<g clip-path="url(#clip0_45_859)">
<path d="M24.3586 4.03243C23.3854 4.16566 22.4772 4.59697 21.7589 5.26712C21.7144 5.30915 21.6787 5.35957 21.6537 5.41549C21.6288 5.4714 21.6152 5.5317 21.6136 5.5929C21.6143 5.71609 21.6629 5.83417 21.7491 5.9222L22.3409 6.53462C22.4181 6.61189 22.5205 6.65875 22.6294 6.66658C22.7383 6.67442 22.8464 6.64271 22.9339 6.57727C23.4039 6.22251 23.9772 6.03145 24.5661 6.03329C25.1059 6.03126 25.6341 6.18972 26.0837 6.48855C26.5332 6.78737 26.8838 7.21308 27.0909 7.7116C27.298 8.21011 27.3523 8.75893 27.2468 9.28834C27.1413 9.81776 26.8808 10.3039 26.4985 10.6849C22.7227 14.4612 17.6822 3.88243 6.24308 9.32485C6.04869 9.41585 5.87524 9.54609 5.73363 9.70738C5.59202 9.86868 5.48533 10.0575 5.42025 10.2621C5.35518 10.4666 5.33314 10.6824 5.35551 10.8958C5.37789 11.1093 5.4442 11.3158 5.55027 11.5024L7.51082 14.8952C7.71551 15.2482 8.05065 15.5065 8.44403 15.6147C8.83741 15.7228 9.25753 15.6721 9.61387 15.4734L9.66144 15.4467L9.62395 15.4734L10.4935 14.9855C11.4625 14.3835 12.3781 13.6994 13.23 12.9408C13.3173 12.866 13.4285 12.8248 13.5435 12.8248C13.6585 12.8248 13.7697 12.866 13.857 12.9408C13.9098 12.9819 13.9526 13.0344 13.9822 13.0944C14.0119 13.1544 14.0275 13.2203 14.0281 13.2872C14.0292 13.3523 14.0164 13.417 13.9904 13.4768C13.9645 13.5365 13.9261 13.5901 13.8779 13.6338C12.9806 14.4305 12.0152 15.1469 10.9927 15.7749H10.9646L10.0946 16.2602C9.727 16.4679 9.31158 16.576 8.88941 16.5738C8.45311 16.574 8.02436 16.46 7.64574 16.2432C7.26711 16.0264 6.95178 15.7143 6.73105 15.338L4.87668 12.1331C1.31559 14.6484 -0.845352 19.4953 0.315273 25.6444C0.335922 25.7473 0.391331 25.8399 0.472201 25.9068C0.553071 25.9737 0.654481 26.0107 0.759413 26.0117H2.8723C2.9821 26.0115 3.08806 25.9713 3.17028 25.8985C3.2525 25.8257 3.30531 25.7255 3.31879 25.6165C3.41297 24.8689 3.77678 24.1813 4.34194 23.6829C4.90709 23.1844 5.63473 22.9094 6.38828 22.9094C7.14183 22.9094 7.86947 23.1844 8.43463 23.6829C8.99978 24.1813 9.36359 24.8689 9.45777 25.6165C9.47198 25.7256 9.52536 25.8258 9.60797 25.8985C9.69058 25.9712 9.79679 26.0114 9.90684 26.0117H11.9661C12.0758 26.0115 12.1818 25.9713 12.264 25.8985C12.3462 25.8257 12.3991 25.7255 12.4125 25.6165C12.5092 24.8703 12.8743 24.1847 13.4395 23.688C14.0047 23.1913 14.7314 22.9173 15.4839 22.9173C16.2364 22.9173 16.9631 23.1913 17.5283 23.688C18.0936 24.1847 18.4586 24.8703 18.5553 25.6165C18.5688 25.7255 18.6216 25.8257 18.7038 25.8985C18.786 25.9713 18.892 26.0115 19.0018 26.0117H21.0343C21.1526 26.0119 21.2663 25.9656 21.3508 25.8827C21.4352 25.7998 21.4837 25.687 21.4857 25.5687C21.5342 22.7039 22.3067 19.4124 24.51 17.7633C32.1418 12.0541 30.1367 7.16016 28.37 5.3829C27.851 4.86343 27.2187 4.47118 26.5228 4.23689C25.8269 4.00259 25.0861 3.93261 24.3586 4.03243ZM19.8497 12.3905C20.0549 12.3451 20.2694 12.3718 20.4571 12.466C20.6449 12.5603 20.7945 12.7163 20.8808 12.9078C20.9672 13.0994 20.9849 13.3148 20.931 13.5179C20.8772 13.7209 20.7551 13.8993 20.5852 14.0229V14.0182L19.1297 13.2872C19.129 13.0779 19.2001 12.8747 19.3311 12.7115C19.4622 12.5483 19.6452 12.435 19.8497 12.3905Z" fill="#02303A"/>
</g>
<defs>
<clipPath id="clip0_45_859">
<rect width="30" height="30" fill="white"/>
</clipPath>
</defs>
</svg>
