<svg width="21" height="20" viewBox="0 0 21 20" fill="none" xmlns="http://www.w3.org/2000/svg">
<path d="M3.47454 17.7929L1.91125 0.259277H19.0888L17.5238 17.7902L10.4895 19.7402L3.47454 17.7929Z" fill="#E44D26"/>
<path d="M10.5 18.25L16.1841 16.6741L17.5214 1.69312H10.5V18.25Z" fill="#F16529"/>
<path d="M10.5 8.19601H7.65438L7.45782 5.99382H10.5V3.84351H5.10767L5.15923 4.42038L5.68767 10.3465H10.5V8.19601ZM10.5 13.7808L10.4905 13.7835L8.09563 13.1366L7.94267 11.4218H5.78376L6.08501 14.7982L10.4902 16.021L10.5 16.0183V13.7808Z" fill="#EBEBEB"/>
<path d="M10.4925 8.19601V10.3465H13.1405L12.8909 13.1354L10.4925 13.7827V16.0201L14.9011 14.7982L14.9334 14.4349L15.4387 8.77351L15.4911 8.19601H14.9117H10.4925ZM10.4925 3.84351V5.99382H15.6869L15.73 5.51069L15.8281 4.42038L15.8795 3.84351H10.4925Z" fill="#EDEDED"/>
</svg>
