<svg width="20" height="20" viewBox="0 0 20 20" fill="none" xmlns="http://www.w3.org/2000/svg">
<g clip-path="url(#clip0_38_141)">
<path d="M3.54688 0.25H16.4688C18.4219 0.25 20.0156 1.82812 20.0156 3.79687V16.2188C20.0156 18.1719 18.4375 19.7656 16.4688 19.7656H3.54688C1.57812 19.75 0 18.1719 0 16.2031V3.79687C0 1.82812 1.57812 0.25 3.54688 0.25Z" fill="#330000"/>
<path d="M9.6719 11.9219H6.56253L5.93753 13.875C5.9219 13.9531 5.8594 14 5.78128 13.9844H4.21878C4.12503 13.9844 4.1094 13.9375 4.12503 13.8281L6.81253 6.10938C6.84378 6.03125 6.8594 5.9375 6.89065 5.82813C6.9219 5.65625 6.93753 5.46875 6.93753 5.28125C6.9219 5.23438 6.96878 5.20313 7.00003 5.1875H9.15628C9.21878 5.1875 9.25003 5.21875 9.26565 5.25L12.3125 13.8281C12.3438 13.9219 12.3125 13.9688 12.2344 13.9688H10.4844C10.4219 13.9844 10.375 13.9375 10.3438 13.875L9.6719 11.9219ZM7.0469 10.2188H9.15628C9.1094 10.0469 9.0469 9.82813 8.96878 9.625C8.89065 9.40625 8.81253 9.15625 8.75003 8.90625C8.6719 8.64063 8.59378 8.39063 8.51565 8.14063C8.43753 7.875 8.3594 7.64063 8.2969 7.40625C8.2344 7.17188 8.1719 6.95313 8.1094 6.75H8.09378C8.01565 7.10938 7.9219 7.46875 7.81253 7.82813C7.68753 8.23438 7.56253 8.64063 7.4219 9.0625C7.2969 9.48438 7.1719 9.875 7.0469 10.2188ZM14.1719 6.67188C13.8907 6.6875 13.625 6.57813 13.4375 6.375C13.25 6.17188 13.1407 5.89063 13.1563 5.60938C13.1407 5.32813 13.25 5.0625 13.4532 4.875C13.6563 4.6875 13.9219 4.57812 14.1875 4.57812C14.5157 4.57812 14.7657 4.67188 14.9532 4.875C15.1407 5.07813 15.2344 5.34375 15.2344 5.60938C15.25 5.89063 15.1407 6.17188 14.9375 6.375C14.7344 6.57813 14.4532 6.6875 14.1719 6.67188ZM13.2344 13.9063V7.48438C13.2344 7.40625 13.2657 7.375 13.3438 7.375H15C15.0782 7.375 15.1094 7.42188 15.1094 7.48438V13.9063C15.1094 14 15.0782 14.0469 15 14.0469H13.3594C13.2813 14.0313 13.2344 13.9844 13.2344 13.9063Z" fill="#FF9A00"/>
</g>
<defs>
<clipPath id="clip0_38_141">
<rect width="20" height="20" fill="white"/>
</clipPath>
</defs>
</svg>
