<svg width="30" height="30" viewBox="0 0 30 30" fill="none" xmlns="http://www.w3.org/2000/svg">
<path d="M11.1603 22.9967C11.1603 22.9967 10.043 23.6468 11.9565 23.8662C14.2749 24.1311 15.4597 24.0931 18.0139 23.6103C18.0139 23.6103 18.6868 24.031 19.6248 24.3957C13.8969 26.8496 6.66194 24.2534 11.1603 22.9967ZM10.46 19.7939C10.46 19.7939 9.20655 20.7218 11.1216 20.9201C13.5983 21.1758 15.5537 21.1967 18.939 20.5451C18.939 20.5451 19.4061 21.0197 20.1418 21.2789C13.2179 23.3039 5.50601 21.4383 10.46 19.7939Z" fill="#0074BD"/>
<path d="M16.3598 14.3602C17.772 15.9856 15.9895 17.447 15.9895 17.447C15.9895 17.447 19.5729 15.5975 17.9276 13.2805C16.3903 11.1207 15.2119 10.048 21.592 6.34766C21.592 6.34789 11.577 8.84844 16.3598 14.3602Z" fill="#EA2D2E"/>
<path d="M23.9351 25.3661C23.9351 25.3661 24.7622 26.0482 23.0238 26.5753C19.7187 27.5765 9.2646 27.8784 6.36116 26.6154C5.31796 26.1611 7.27499 25.5314 7.89069 25.3985C8.53265 25.2595 8.89921 25.2848 8.89921 25.2848C7.73835 24.4675 1.39616 26.8903 5.67819 27.5852C17.355 29.478 26.9634 26.7328 23.9351 25.3661ZM11.6981 16.4751C11.6981 16.4751 6.38108 17.7382 9.81538 18.1973C11.2657 18.3914 14.1555 18.3468 16.8492 18.1209C19.05 17.936 21.2585 17.5411 21.2585 17.5411C21.2585 17.5411 20.4832 17.8736 19.9216 18.2566C14.5212 19.6772 4.091 19.0155 7.09405 17.5633C9.6328 16.3354 11.6981 16.4751 11.6981 16.4751ZM21.2365 21.8064C26.7258 18.9548 24.1875 16.2143 22.4158 16.5834C21.9827 16.6736 21.7884 16.7522 21.7884 16.7522C21.7884 16.7522 21.9497 16.4993 22.2572 16.3905C25.7618 15.1589 28.4566 20.024 21.1268 21.9511C21.1268 21.9506 21.2109 21.8744 21.2365 21.8064Z" fill="#0074BD"/>
<path d="M17.9275 0.37207C17.9275 0.37207 20.9669 3.41332 15.044 8.0884C10.2942 11.8398 13.961 13.9782 15.0424 16.4225C12.2695 13.9211 10.2356 11.7186 11.5999 9.66902C13.6033 6.66105 19.1536 5.20207 17.9275 0.37207Z" fill="#EA2D2E"/>
<path d="M12.2377 29.5363C17.5055 29.8731 25.5971 29.3488 25.7886 26.856C25.7886 26.856 25.4204 27.801 21.4346 28.5507C16.9379 29.3973 11.3907 29.2986 8.10168 28.7556C8.10168 28.7558 8.77551 29.3136 12.2377 29.5363Z" fill="#0074BD"/>
</svg>
