<svg width="21" height="20" viewBox="0 0 21 20" fill="none" xmlns="http://www.w3.org/2000/svg">
<g clip-path="url(#clip0_38_119)">
<path d="M0.5 0H20.5V20H0.5V0ZM18.8617 15.23C18.7158 14.3175 18.1217 13.5508 16.3592 12.8358C15.7458 12.5483 15.0642 12.3483 14.8617 11.8858C14.7858 11.6108 14.7742 11.4608 14.8233 11.2983C14.9483 10.76 15.5858 10.5983 16.0858 10.7483C16.4108 10.8483 16.7108 11.0983 16.8992 11.4983C17.7608 10.935 17.7608 10.935 18.3617 10.5608C18.1367 10.2108 18.025 10.06 17.8733 9.91083C17.3483 9.32333 16.6492 9.02333 15.5117 9.04917L14.9242 9.12333C14.3608 9.26083 13.8242 9.56083 13.4992 9.96083C12.5492 11.0367 12.8233 12.9117 13.9733 13.6867C15.1108 14.5367 16.7742 14.7233 16.9867 15.5242C17.1867 16.4992 16.2617 16.8117 15.3483 16.6992C14.6725 16.5492 14.2983 16.2108 13.8858 15.5858L12.3608 16.4617C12.5358 16.8617 12.7358 17.0358 13.0358 17.3858C14.4858 18.8492 18.1108 18.7742 18.7617 16.5492C18.7858 16.4742 18.9617 15.9617 18.8233 15.1742L18.8617 15.23ZM11.3758 9.1925H9.5025C9.5025 10.8075 9.495 12.4125 9.495 14.03C9.495 15.0567 9.5475 15.9992 9.38 16.2892C9.105 16.8633 8.39667 16.79 8.075 16.6892C7.745 16.5258 7.5775 16.3008 7.38333 15.9767C7.33083 15.8892 7.29167 15.8133 7.2775 15.8133L5.75667 16.7508C6.01083 17.2758 6.38167 17.7275 6.86 18.015C7.5725 18.44 8.53 18.5775 9.5325 18.3525C10.185 18.1642 10.7475 17.7767 11.0417 17.1767C11.4667 16.4017 11.3767 15.4517 11.3725 14.3883C11.3825 12.6767 11.3725 10.9642 11.3725 9.23917L11.3758 9.1925Z" fill="#F7DF1E"/>
</g>
<defs>
<clipPath id="clip0_38_119">
<rect width="20" height="20" fill="white" transform="translate(0.5)"/>
</clipPath>
</defs>
</svg>
