<svg width="20" height="20" viewBox="0 0 20 20" fill="none" xmlns="http://www.w3.org/2000/svg">
<g clip-path="url(#clip0_38_122)">
<path d="M1.27083 4.8916C-0.500836 7.4366 -0.280836 10.7466 1.07333 13.4491C1.10416 13.5149 1.13833 13.5774 1.17166 13.6399C1.19083 13.6833 1.2125 13.7233 1.23583 13.7649C1.24666 13.7874 1.26166 13.8116 1.275 13.8333C1.29666 13.8766 1.32 13.9183 1.3425 13.9599L1.47333 14.1816C1.49833 14.2224 1.52083 14.2624 1.54833 14.3033C1.595 14.3816 1.64833 14.4591 1.69666 14.5374C1.71833 14.5708 1.73833 14.6024 1.7625 14.6349C1.8433 14.7622 1.92949 14.8859 2.02083 15.0058C2.08583 15.0949 2.15083 15.1816 2.22083 15.2683C2.24333 15.2999 2.26916 15.3316 2.2925 15.3641L2.47583 15.5883C2.49916 15.6133 2.52166 15.6441 2.54583 15.6708C2.6275 15.7691 2.71416 15.8649 2.80083 15.9624L2.805 15.9674C2.91081 16.1009 3.02943 16.2237 3.15916 16.3341C3.22583 16.4033 3.2925 16.4716 3.36333 16.5383L3.4475 16.6191C3.54 16.7066 3.63333 16.7933 3.73083 16.8766C3.7325 16.8766 3.73333 16.8783 3.735 16.8791L3.7825 16.9208C3.8675 16.9949 3.95333 17.0691 4.04083 17.1374L4.145 17.2249C4.21583 17.2816 4.29 17.3358 4.36166 17.3916L4.47583 17.4791C4.55333 17.5374 4.63583 17.5949 4.715 17.6516C4.74416 17.6724 4.77333 17.6933 4.80333 17.7124L4.82833 17.7316L5.06166 17.8858L5.16166 17.9524C5.285 18.0308 5.40666 18.1058 5.52833 18.1791C5.5625 18.1958 5.59833 18.2158 5.63083 18.2358C5.72083 18.2874 5.81416 18.3399 5.905 18.3883C5.955 18.4166 6.00666 18.4408 6.05833 18.4666C6.12083 18.5016 6.18583 18.5358 6.25333 18.5708C6.26945 18.5757 6.28507 18.5821 6.3 18.5899C6.3275 18.6024 6.35333 18.6158 6.38 18.6291C6.48 18.6791 6.58416 18.7274 6.6925 18.7749C6.7125 18.7833 6.73416 18.7916 6.75583 18.8033C6.87583 18.8558 6.99666 18.9058 7.12083 18.9549C7.14916 18.9633 7.17916 18.9774 7.20833 18.9883C7.32083 19.0308 7.43666 19.0741 7.55083 19.1149L7.5925 19.1299C7.72083 19.1733 7.84666 19.2149 7.97583 19.2549C8.00583 19.2633 8.03666 19.2741 8.06833 19.2824C8.20166 19.3224 8.33 19.3699 8.46333 19.3966C17.0242 20.9566 19.5117 14.2491 19.5117 14.2491C17.4217 16.9708 13.7133 17.6883 10.2 16.8899C10.07 16.8599 9.94 16.8183 9.80833 16.7799C9.64974 16.7328 9.4922 16.6823 9.33583 16.6283L9.28416 16.6083C9.17083 16.5699 9.06166 16.5274 8.95083 16.4849C8.92069 16.4727 8.89011 16.4616 8.85916 16.4516C8.73583 16.4016 8.6175 16.3508 8.49833 16.2983C8.4725 16.2899 8.45083 16.2783 8.425 16.2683C8.32404 16.2219 8.22348 16.1747 8.12333 16.1266C8.09332 16.1133 8.06386 16.0989 8.035 16.0833C7.95666 16.0466 7.87833 16.0041 7.80166 15.9641C7.74902 15.9388 7.69706 15.9121 7.64583 15.8841C7.55083 15.8341 7.45666 15.7799 7.3625 15.7283C7.33416 15.7083 7.30166 15.6916 7.26916 15.6733C7.14601 15.6002 7.02405 15.5252 6.90333 15.4483C6.86983 15.4277 6.83704 15.406 6.805 15.3833C6.71656 15.3285 6.62985 15.271 6.545 15.2108C6.51583 15.1916 6.48916 15.1708 6.45916 15.1499C6.37611 15.0926 6.29415 15.0337 6.21333 14.9733C6.17833 14.9449 6.14083 14.9183 6.10333 14.8899C6.03 14.8316 5.95583 14.7774 5.8825 14.7166L5.78416 14.6374C5.68952 14.5616 5.59644 14.4838 5.505 14.4041C5.49555 14.3945 5.48523 14.3859 5.47416 14.3783L5.185 14.1149L5.10166 14.0366C5.03333 13.9666 4.96333 13.8999 4.89333 13.8316L4.81166 13.7483C4.72363 13.6607 4.63778 13.5709 4.55416 13.4791L4.54166 13.4658C4.45333 13.3691 4.36666 13.2699 4.28083 13.1699C4.25833 13.1449 4.23666 13.1166 4.21416 13.0891L4.025 12.8583C3.92891 12.7348 3.83445 12.6101 3.74166 12.4841C1.79333 9.82493 1.08833 6.15326 2.6475 3.14243M6.76666 2.74827C5.48333 4.59077 5.555 7.05577 6.555 9.00493C6.72025 9.3329 6.90908 9.64846 7.12 9.9491C7.31166 10.2241 7.52333 10.5499 7.78083 10.7724C7.87 10.8741 7.96666 10.9724 8.0675 11.0724L8.1425 11.1474C8.2375 11.2391 8.33583 11.3283 8.43416 11.4183L8.4475 11.4291C8.55989 11.5272 8.67493 11.6222 8.7925 11.7141C8.82083 11.7333 8.845 11.7558 8.8725 11.7749C8.98916 11.8649 9.1075 11.9516 9.22916 12.0383L9.24166 12.0458C9.29333 12.0833 9.34833 12.1174 9.40666 12.1541C9.43 12.1691 9.45666 12.1891 9.48166 12.2041C9.57 12.2608 9.65666 12.3141 9.74666 12.3683C9.76083 12.3741 9.77333 12.3816 9.78666 12.3874C9.86166 12.4333 9.94333 12.4774 10.0217 12.5183C10.0492 12.5349 10.0758 12.5474 10.105 12.5633C10.16 12.5908 10.215 12.6199 10.2692 12.6483L10.2958 12.6599C10.4083 12.7158 10.5233 12.7674 10.6358 12.8183C10.6642 12.8299 10.6883 12.8391 10.7125 12.8508C10.805 12.8908 10.8992 12.9291 10.9925 12.9649C11.0342 12.9791 11.0733 12.9958 11.1125 13.0083C11.1975 13.0399 11.2875 13.0691 11.3708 13.0983L11.4875 13.1358C11.61 13.1733 11.7333 13.2224 11.8617 13.2441C18.47 14.3383 20 9.24827 20 9.24827C18.6225 11.2316 15.9567 12.1758 13.1158 11.4383C12.9901 11.4058 12.8653 11.3697 12.7417 11.3299C12.7017 11.3183 12.6667 11.3058 12.6283 11.2941C12.5417 11.2641 12.4525 11.2358 12.3683 11.2033L12.2483 11.1583C12.1542 11.1208 12.0592 11.0858 11.9683 11.0458C11.94 11.0333 11.9142 11.0249 11.8925 11.0124C11.7758 10.9599 11.6583 10.9083 11.5442 10.8524L11.3725 10.7633L11.2733 10.7133C11.1986 10.6736 11.125 10.6319 11.0525 10.5883C11.0347 10.5795 11.0175 10.5698 11.0008 10.5591C10.9125 10.5041 10.82 10.4508 10.7358 10.3941C10.7075 10.3783 10.6817 10.3591 10.655 10.3424L10.4817 10.2291C10.3617 10.1458 10.2442 10.0558 10.125 9.96827C10.0983 9.9441 10.0725 9.9241 10.0467 9.90243C8.7975 8.92077 7.8125 7.57743 7.345 6.05827C6.85333 4.47743 6.96166 2.70577 7.81166 1.2666M11.3883 1.1441C10.6308 2.25577 10.5583 3.63577 11.08 4.86077C11.6342 6.16327 12.7667 7.18577 14.0867 7.6691C14.1408 7.68993 14.1933 7.70743 14.25 7.72743L14.3233 7.74993C14.4 7.77493 14.4775 7.80243 14.5567 7.81993C18.2075 8.5241 19.1958 5.94493 19.4617 5.5666C18.5925 6.81493 17.135 7.1141 15.3467 6.6791C15.201 6.64268 15.0574 6.59816 14.9167 6.54577C14.7414 6.48429 14.5695 6.41364 14.4017 6.3341C14.084 6.18044 13.782 5.99623 13.5 5.7841C11.8983 4.56993 10.9058 2.2541 11.9508 0.367432" fill="#0769AD"/>
</g>
<defs>
<clipPath id="clip0_38_122">
<rect width="20" height="20" fill="white"/>
</clipPath>
</defs>
</svg>
