<svg width="20" height="20" viewBox="0 0 20 20" fill="none" xmlns="http://www.w3.org/2000/svg">
<g clip-path="url(#clip0_43_456)">
<path d="M10.0358 19.9733C10.4349 19.97 10.8299 19.9492 11.2241 19.895C12.1271 19.7778 13.0094 19.5357 13.8458 19.1758C15.0214 18.6714 16.0932 17.9531 17.0066 17.0575C17.8476 16.233 18.536 15.2661 19.0399 14.2017C19.4708 13.2857 19.7575 12.3086 19.8899 11.305C20.0141 10.3383 20.0024 9.35001 19.8524 8.38917C19.7272 7.5908 19.5053 6.81063 19.1916 6.06584C18.9915 5.59802 18.7535 5.14735 18.4799 4.71834C17.5066 3.18751 16.0958 1.95667 14.4716 1.13501C13.8916 0.838736 13.2858 0.596062 12.6616 0.410006H12.6574C12.7566 0.462506 12.8574 0.520006 12.9449 0.577506C13.0449 0.639173 13.1441 0.699173 13.2374 0.765006C13.7116 1.08337 14.1475 1.45527 14.5366 1.87334C15.4224 2.82751 16.0341 3.99667 16.3849 5.24084C16.6216 6.05917 16.7466 6.90584 16.7974 7.75501C16.8341 8.37417 16.8341 8.99751 16.7583 9.61251C16.6341 10.6708 16.2966 11.7042 15.7349 12.6092C15.3214 13.2835 14.7832 13.8729 14.1491 14.3458C13.1124 15.1192 11.7516 15.5808 10.4524 15.2742C10.2379 15.2237 10.0291 15.1517 9.82911 15.0592C9.60121 14.9553 9.38382 14.8297 9.17995 14.6842C8.79382 14.4262 8.445 14.1163 8.14328 13.7633C7.77724 13.327 7.48224 12.8357 7.26911 12.3075C7.00807 11.6318 6.8687 10.9152 6.85745 10.1908C6.83245 9.13001 7.04495 8.06334 7.56911 7.13251C7.92025 6.51293 8.39138 5.96956 8.95495 5.53417C9.14245 5.38584 9.34161 5.25667 9.54161 5.13501L9.55495 5.12917C9.16141 5.03921 8.7571 5.00554 8.35411 5.02917C8.00593 5.0524 7.66209 5.1196 7.33078 5.22917C7.03161 5.32917 6.74411 5.45417 6.48161 5.60417C6.26838 5.72656 6.06425 5.86413 5.87078 6.01584C5.69495 6.16584 5.52078 6.31584 5.35828 6.47834C4.42245 7.43917 3.88495 8.71334 3.67328 10.025C3.54828 10.8358 3.54828 11.6583 3.59745 12.4833C3.68495 13.6458 3.92328 14.8058 4.38495 15.8683C4.66614 16.525 5.04485 17.1355 5.50828 17.6792C6.21741 18.4981 7.11237 19.1354 8.11828 19.5375C8.68171 19.7678 9.27425 19.9193 9.87911 19.9875C9.94078 20 10.0033 20 10.0533 20L10.0358 19.9733ZM7.59078 19.6417C7.462 19.5861 7.33676 19.5226 7.21578 19.4517C6.58859 19.1134 6.01603 18.6825 5.51745 18.1733C4.60578 17.2258 3.99495 16.035 3.64495 14.7733C3.41442 13.9093 3.27615 13.0232 3.23245 12.13C3.1955 11.5516 3.20833 10.9712 3.27078 10.395C3.38328 9.34751 3.68328 8.31084 4.20745 7.41167C4.58414 6.74834 5.08925 6.16674 5.69328 5.70084C6.1067 5.38399 6.56545 5.13116 7.05411 4.95084C8.00032 4.60826 9.03446 4.59505 9.98911 4.91334C10.0133 4.91334 10.0133 4.91334 10.0266 4.93834C10.0391 4.95084 10.0641 4.95084 10.0766 4.96334C10.1141 4.97667 10.1633 5.00084 10.2141 5.02501C10.4133 5.12501 10.6133 5.25084 10.8008 5.37501C11.5565 5.90422 12.1593 6.62341 12.5483 7.46001C12.8983 8.22167 13.0608 9.07167 13.0741 9.90834C13.0858 10.8075 12.9241 11.7058 12.5366 12.53C12.064 13.5241 11.2964 14.3482 10.3383 14.89C10.4133 14.915 10.4883 14.9275 10.5641 14.9525C10.7516 14.9892 10.9383 15.0142 11.1374 15.0142C12.3608 15.0517 13.5474 14.4642 14.4208 13.6417C14.5833 13.4917 14.7333 13.3292 14.8708 13.1542C15.0583 12.9292 15.2333 12.7042 15.3824 12.4683C15.5816 12.1558 15.7449 11.8433 15.8941 11.5067C16.0848 11.061 16.227 10.5961 16.3183 10.12C16.4816 9.28334 16.4941 8.43501 16.4424 7.59834C16.3299 5.91334 15.8816 4.22751 14.9074 2.82834C14.7634 2.62101 14.609 2.42103 14.4449 2.22917C14.1717 1.92014 13.8756 1.6321 13.5591 1.36751C13.2061 1.07719 12.8257 0.821827 12.4233 0.605006C11.9693 0.396666 11.4974 0.229874 11.0133 0.106673L10.7633 0.0566728C10.5891 0.0316728 10.4133 0.0200061 10.2349 0.00667278C9.95299 -0.00583152 9.67054 -0.00137905 9.38911 0.0200061C8.80245 0.0575061 8.21245 0.153339 7.62911 0.300839C4.83245 1.02251 2.38578 2.97167 1.08328 5.55834C0.667642 6.38237 0.369735 7.26066 0.198279 8.16751C0.000837356 9.20468 -0.0284256 10.2669 0.111613 11.3133C0.211613 12.1633 0.423279 12.9992 0.759946 13.7942C0.949113 14.2692 1.18578 14.7308 1.44745 15.1675C2.35911 16.6533 3.68328 17.8642 5.20578 18.7008C5.77911 19.0258 6.37911 19.2758 7.00328 19.4875C7.19161 19.5492 7.37828 19.6125 7.57745 19.6625L7.59078 19.6417Z" fill="#EDEDED"/>
</g>
<defs>
<clipPath id="clip0_43_456">
<rect width="20" height="20" fill="white"/>
</clipPath>
</defs>
</svg>
