<svg width="30" height="30" viewBox="0 0 30 30" fill="none" xmlns="http://www.w3.org/2000/svg">
<path d="M5.06409 6.55628V24.7431H23.2994C23.2994 24.6177 23.2994 24.4923 23.2994 24.3659C23.2994 22.5043 23.2966 20.6438 23.3004 18.7822C23.3023 17.6467 24.09 17.0024 25.1971 17.2209C25.7805 17.3369 26.1929 17.7493 26.2984 18.3346C26.3279 18.4971 26.345 18.6644 26.345 18.8288C26.3478 20.7606 26.3526 22.6934 26.345 24.6253C26.3393 26.1733 25.4356 27.3639 24.0026 27.7079C23.7061 27.7792 23.3916 27.8029 23.0856 27.8039C17.1456 27.8096 11.2065 27.8096 5.26649 27.8067C3.29852 27.8067 2.00238 26.5173 2.00143 24.5578C1.99952 18.6311 1.99952 12.7035 2.00143 6.77673C2.00143 4.79641 3.29092 3.51737 5.28644 3.51547C7.2107 3.51357 9.13496 3.50787 11.0602 3.51832C12.1862 3.52402 12.8191 4.30228 12.6138 5.39317C12.4789 6.10776 11.9259 6.55153 11.1267 6.55438C9.26135 6.56103 7.39695 6.55628 5.53161 6.55723C5.38907 6.55723 5.24748 6.55723 5.06409 6.55723V6.55628Z" fill="#EDEDED"/>
<path d="M22.581 5.04485C22.4546 5.04485 22.3292 5.04485 22.2028 5.04485C21.0625 5.04485 19.9222 5.05531 18.7829 5.04105C17.767 5.0287 17.1874 4.41389 17.2263 3.42183C17.2577 2.60936 17.8079 2.0183 18.6242 2.0126C21.2488 1.9955 23.8734 1.9974 26.4979 2.0088C27.2372 2.0126 27.854 2.64452 27.8568 3.38762C27.8663 5.98275 27.8673 8.57884 27.8549 11.174C27.8511 12.0149 27.2743 12.5794 26.4495 12.6155C25.5439 12.6554 24.9272 12.185 24.8426 11.3194C24.7856 10.7321 24.817 10.1363 24.8131 9.54334C24.8093 8.8088 24.8103 8.07426 24.8074 7.33876C24.8074 7.31691 24.7932 7.296 24.7666 7.22378C24.663 7.32261 24.5727 7.40528 24.4863 7.49175C21.9244 10.047 19.3654 12.6051 16.8006 15.1584C16.0746 15.8815 15.0826 15.8226 14.4839 15.0377C14.0544 14.4751 14.0687 13.7492 14.5238 13.2028C14.6227 13.0849 14.7338 12.9776 14.8431 12.8683C17.3366 10.3786 19.831 7.88991 22.3263 5.40215C22.4185 5.31093 22.5287 5.23776 22.6304 5.15603C22.6133 5.11802 22.5962 5.08096 22.5791 5.04295L22.581 5.04485Z" fill="#EDEDED"/>
</svg>
