<svg width="239" height="239" viewBox="0 0 239 239" fill="none" xmlns="http://www.w3.org/2000/svg">
<path d="M119.5 238C184.946 238 238 184.946 238 119.5C238 54.0543 184.946 1 119.5 1C54.0543 1 1 54.0543 1 119.5C1 184.946 54.0543 238 119.5 238Z" fill="#FFFEF2" stroke="#CBCCCE" stroke-width="1.37307" stroke-miterlimit="10"/>
<path d="M37.3685 55.2031C35.5986 54.5962 33.6791 54.6992 31.8282 55.2237C29.1411 58.0138 26.616 60.9686 24.3408 64.0992C20.315 69.6409 15.5573 76.7534 15.6218 83.8975C15.6369 85.6111 16.2631 89.4859 18.5108 89.6809C21.0153 89.8978 23.6872 85.9173 24.9436 84.2504C27.3218 81.0951 29.3676 77.7036 31.5014 74.3835C33.4621 71.3339 35.6151 68.7731 38.1429 66.1712C39.6107 64.6608 41.6923 62.7069 41.7404 60.4345C41.7884 58.1415 39.4061 55.902 37.3685 55.2031Z" fill="#DEDFE0"/>
<path d="M137.818 21.6521C137.799 21.5546 137.767 21.4626 137.741 21.3679C137.697 21.3432 137.667 21.3212 137.622 21.2965C136.613 20.7472 135.558 20.2996 134.476 19.9165C131.996 19.0405 129.383 18.4323 126.755 18.2647C124.856 18.1439 122.653 18.2057 121.075 18.9279C119.56 19.6213 118.93 20.5797 118.977 22.2C119.035 24.2005 120.003 26.3933 121.512 27.7183C122.819 28.8662 124.553 29.263 126.302 29.2246C129.948 29.1436 133.93 27.2556 136.396 24.5671C136.879 24.0399 137.23 23.584 137.571 22.8398C137.592 22.778 137.682 22.5473 137.697 22.4965C137.74 22.3455 137.78 22.1972 137.809 22.0434C137.748 22.3592 137.745 21.2827 137.818 21.6521Z" fill="#DEDFE0"/>
<path d="M165.768 40.731C165.766 40.6404 165.757 40.5498 165.75 40.4592C165.716 40.2642 165.668 40.072 165.606 39.8825C165.58 39.8015 165.55 39.7218 165.52 39.6422C165.512 39.6243 165.503 39.6065 165.495 39.5886C165.402 39.3991 165.297 39.2165 165.181 39.0421C165.177 39.0367 165.172 39.0298 165.168 39.0243C164.848 39.071 164.509 39.0257 164.204 38.8993L164.202 38.898C164.192 38.8939 164.181 38.8939 164.171 38.8897C164.156 38.8829 164.165 38.8856 164.155 38.8815C164.137 38.876 164.137 38.876 164.093 38.8595C163.998 38.8252 163.905 38.7895 163.809 38.7566C163.603 38.6852 163.396 38.622 163.186 38.5657C162.977 38.5094 162.765 38.46 162.553 38.4188C162.455 38.3996 162.358 38.3817 162.259 38.3652C162.205 38.3556 161.92 38.3213 162.094 38.3378C162.025 38.3309 161.933 38.3227 161.906 38.3199C161.808 38.3103 161.711 38.3034 161.613 38.2966C161.405 38.2828 161.195 38.2746 160.985 38.2746C160.599 38.2719 160.216 38.2993 159.831 38.335C159.806 38.3378 159.783 38.3405 159.765 38.3419C159.757 38.3433 159.747 38.3446 159.741 38.346C159.653 38.3597 159.565 38.3748 159.477 38.3927C159.305 38.4256 159.136 38.4627 158.968 38.5053C158.792 38.5506 158.617 38.6014 158.444 38.6577C158.367 38.6838 158.291 38.7099 158.215 38.7387C158.204 38.7428 158.194 38.7469 158.183 38.7511C157.931 38.8952 157.662 39.0023 157.417 39.1671C157.404 39.1767 157.39 39.1863 157.375 39.1959C157.338 39.2248 157.305 39.255 157.283 39.2742C157.206 39.3442 157.137 39.428 157.063 39.5021C157.037 39.5419 157.012 39.5818 156.989 39.6243C156.983 39.6353 156.977 39.6477 156.971 39.66C156.964 39.693 156.952 39.7314 156.944 39.7726C156.944 39.7973 156.944 39.8221 156.944 39.8468C156.97 39.9333 156.994 40.0225 157.014 40.1063C157.047 40.1653 157.077 40.2257 157.111 40.2834C157.156 40.3589 157.206 40.4303 157.254 40.5017C157.379 40.6294 157.49 40.7695 157.618 40.8944C157.789 41.0619 157.972 41.213 158.155 41.3668C158.185 41.3901 158.216 41.4121 158.247 41.434C158.347 41.5068 158.448 41.5768 158.55 41.6455C158.955 41.9174 159.373 42.1604 159.812 42.3732C159.97 42.4501 160.168 42.516 160.325 42.6066C160.346 42.6149 160.365 42.6231 160.386 42.6313C160.466 42.6629 160.545 42.6931 160.626 42.7233C161.233 42.9472 161.844 43.0845 162.474 43.2094C162.537 43.2149 162.601 43.2204 162.664 43.2259C162.79 43.2341 162.918 43.2396 163.044 43.241C163.176 43.2424 163.308 43.2396 163.438 43.2314C163.473 43.2286 163.548 43.2218 163.618 43.2149C163.694 43.2026 163.802 43.1833 163.843 43.1737C163.948 43.1504 164.051 43.1243 164.152 43.0941C164.241 43.068 164.327 43.035 164.414 43.0048C164.432 42.9966 164.45 42.9884 164.468 42.9787C164.634 42.895 164.785 42.7947 164.939 42.6931C164.951 42.6822 164.964 42.6725 164.976 42.6616C165.043 42.6011 165.109 42.538 165.172 42.4721C165.22 42.4226 165.263 42.3705 165.307 42.3183C165.318 42.3032 165.329 42.2867 165.34 42.2716C165.435 42.1274 165.513 41.9764 165.59 41.8226C165.593 41.8144 165.597 41.8061 165.599 41.7979C165.628 41.7141 165.656 41.629 165.679 41.5425C165.704 41.4491 165.726 41.3544 165.745 41.2597C165.75 41.0825 165.774 40.9068 165.768 40.731Z" fill="#DEDFE0"/>
<path d="M88.5867 54.643C88.3698 54.5963 88.0389 54.4892 87.7958 54.4975C87.7835 54.4975 87.7752 54.5002 87.7615 54.4975C87.6777 54.4879 87.594 54.4782 87.5102 54.4686C87.3358 54.4494 87.1615 54.4343 86.9871 54.4192C86.6328 54.3904 86.2772 54.3698 85.9216 54.356C85.1472 54.3272 84.3714 54.33 83.597 54.3657C83.196 54.3835 82.7965 54.411 82.3969 54.448C82.2006 54.4659 82.0042 54.4892 81.8079 54.5098C81.768 54.5139 81.6939 54.5249 81.6458 54.5318C81.6033 54.5373 81.5607 54.5442 81.5181 54.551C80.8975 54.6458 80.2796 54.7707 79.6769 54.9492C79.5341 54.9918 79.3926 55.0371 79.2526 55.0865C79.2251 55.0961 79.14 55.1277 79.0658 55.1565C78.9972 55.1867 78.8722 55.2417 78.8379 55.2595C78.7267 55.3158 78.6182 55.3749 78.5125 55.4394C78.4672 55.4669 78.4246 55.4971 78.3807 55.5259C78.4521 55.4957 78.4425 55.4545 78.3573 55.5437C78.3258 55.5767 78.2901 55.611 78.2544 55.6412C78.2269 55.6646 78.2475 55.6522 78.2324 55.6687C78.2269 55.6783 78.2242 55.6824 78.2187 55.6934C78.2242 55.7195 78.2324 55.7456 78.2434 55.7703C78.301 55.8596 78.3518 55.9612 78.4054 56.0518C78.4095 56.0532 78.4356 56.0902 78.4892 56.1726C78.7171 56.428 78.9491 56.671 79.2059 56.899C79.291 56.9745 79.3775 57.0486 79.4654 57.1214C79.4627 57.1187 79.5492 57.1887 79.6055 57.234C79.6631 57.2779 79.762 57.3521 79.7592 57.3521C79.8389 57.4097 79.9185 57.466 79.9995 57.521C80.3277 57.742 80.671 57.9219 81.0225 58.1018C81.0499 58.1155 81.0417 58.1141 81.054 58.121C81.065 58.1251 81.0595 58.121 81.0746 58.1279C81.157 58.1581 81.2394 58.191 81.3218 58.2199C81.4852 58.2775 81.65 58.3283 81.8161 58.3723C81.996 58.4203 82.1786 58.456 82.3598 58.4945C82.4257 58.5082 82.4917 58.5151 82.5576 58.5274C82.482 58.5137 82.4546 58.5082 82.4244 58.5041C82.3694 58.4945 82.3543 58.4917 82.4244 58.5041C82.4738 58.5123 82.5383 58.5233 82.5713 58.5247C82.9132 58.5466 83.251 58.5618 83.5928 58.5439C83.6752 58.5398 84.0212 58.4958 84.0007 58.5041C84.1009 58.4876 84.2011 58.4725 84.3014 58.4519C84.624 58.3846 84.9426 58.2954 85.2543 58.1883C85.3545 58.154 85.8776 57.9301 85.4767 58.1128C85.6168 58.0482 85.7568 57.9864 85.8955 57.9178C86.1811 57.775 86.4571 57.6143 86.7234 57.44C86.8484 57.3589 86.9679 57.2697 87.0887 57.1846C87.1985 57.0871 87.2068 57.0843 87.1628 57.1241C87.193 57.1008 87.2219 57.0761 87.2507 57.0514C87.4786 56.8564 87.697 56.6491 87.9002 56.4294C87.9922 56.3305 88.0773 56.2248 88.1665 56.1232C88.2434 56.0078 88.2654 55.9845 88.2544 56.0065C88.2585 55.9996 88.264 55.9927 88.2681 55.9859C88.4233 55.7634 88.5634 55.53 88.6856 55.287C88.7048 55.2472 88.724 55.2073 88.7432 55.1675C88.7776 55.0604 88.8188 54.9561 88.8503 54.849C88.8613 54.8078 88.8696 54.7666 88.8792 54.7254C88.7817 54.6952 88.6856 54.6636 88.5867 54.643Z" fill="#DEDFE0"/>
<path d="M43.0351 99.4491C41.8748 99.6948 40.8217 100.081 39.8372 100.56C35.3322 102.753 31.1333 106.415 28.5066 110.694C27.3903 112.514 26.5692 114.44 26.7065 116.428C26.7601 117.199 27.1267 118.058 27.7267 118.992C28.0206 119.449 28.3652 119.865 28.7881 120.229C28.898 120.324 28.9968 120.403 29.2357 120.548C29.3236 120.601 29.8248 120.844 29.6696 120.782C30.5635 121.135 31.1704 121.105 31.9956 120.905C33.0707 120.642 33.955 120.154 34.9257 119.478C37.1213 117.95 38.9063 115.769 40.3507 113.541C41.9256 111.111 43.1875 108.456 43.8644 105.633C44.3642 103.55 44.5001 101.222 43.6969 99.3845C43.4745 99.4024 43.2479 99.4038 43.0351 99.4491Z" fill="#DEDFE0"/>
<path d="M96.4476 133.816C93.9939 133.849 91.5251 134.245 89.2966 134.876C87.5103 135.381 85.6443 136.136 84.4771 137.306C83.9622 137.822 83.7741 138.156 83.6094 138.829C83.6025 138.855 83.6025 138.847 83.5984 138.86C83.5984 138.877 83.6011 138.87 83.5998 138.897C83.597 138.974 83.5915 139.051 83.5915 139.128C83.5901 139.226 83.597 139.323 83.6025 139.422C83.6039 139.441 83.6011 139.429 83.6011 139.438C83.6039 139.451 83.6039 139.445 83.6066 139.462C83.6409 139.628 83.6794 139.793 83.7302 139.956C83.8236 140.261 83.8428 140.275 83.895 140.382C84.9866 142.598 87.3496 144.281 89.4696 145.511C90.4349 146.072 91.418 146.541 92.5082 146.787C93.2154 146.946 93.8181 146.939 94.4992 146.747C94.5486 146.734 94.561 146.731 94.5816 146.725C94.6626 146.688 94.7463 146.651 94.8232 146.604C94.9647 146.519 95.1047 146.437 95.2406 146.339C95.1445 146.408 95.2626 146.334 95.415 146.171C95.5235 146.054 95.6306 145.938 95.7336 145.818C95.7528 145.781 95.9327 145.528 95.9711 145.465C96.0768 145.29 96.1702 145.111 96.2636 144.929C96.2965 144.865 96.3267 144.796 96.3569 144.73C96.3638 144.715 96.3707 144.699 96.3748 144.689C96.4558 144.483 96.5272 144.274 96.5931 144.064C97.1629 142.235 97.2206 140.542 97.1259 138.529C97.0462 136.913 96.795 135.38 96.4476 133.816Z" fill="#DEDFE0"/>
<path d="M202.961 36.6145C207.832 43.8011 211.137 51.6482 209.929 61.04C209.804 62.0108 209.122 62.6026 208.121 62.4172C206.944 62.2003 205.752 62.5751 204.556 62.9802C205.403 63.7697 206.197 64.6128 206.901 65.5574C211.89 72.2525 210.994 80.966 209.104 88.5975C208.026 92.946 206.26 97.1984 206.554 101.756C206.801 105.582 208.475 109.1 209.48 112.754C210.567 116.703 211.292 121.558 209.956 125.523C208.598 129.552 205.458 132.567 202.233 135.176C198.662 138.065 195.162 141.308 191.034 143.391C187.14 145.356 182.579 146.483 178.211 146.52C173.216 146.563 167.439 145.676 162.818 148.057C159.517 149.758 155.706 152.165 153.776 155.433C153.022 156.709 152.564 158.547 153.776 159.716C154.657 160.566 156.138 160.579 157.283 160.629C159.861 160.74 163.007 160.552 164.728 162.874C167.475 166.584 164.869 171.138 161.97 173.772C158.302 177.106 153.551 179.338 148.826 180.718C144.796 181.895 139.683 182.863 135.717 180.949C132.377 179.337 131.849 175.992 132.539 172.797C129.386 173.67 127.17 176.054 127.211 179.701C127.256 183.787 129.809 187.509 133.378 189.364C134.116 189.749 134.197 190.644 133.89 191.318C131.293 197.011 124.428 201.178 118.248 198.681C115.749 197.67 115.145 194.939 113.61 193C111.218 189.977 106.298 190.018 102.808 189.786C97.5762 189.437 92.5453 188.042 87.3757 187.292C83.3979 186.714 79.8897 187.287 76.7921 189.996C74.7956 191.743 73.0216 193.861 71.6362 196.121C70.8467 197.409 70.2947 198.959 69.2333 200.062C66.6712 202.724 61.8778 202.326 58.6758 201.383C54.2806 200.088 50.0488 198.343 46.3223 195.656C41.1225 191.905 36.7369 187.206 32.1179 182.793C28.0701 178.926 23.5087 174.668 18.1867 172.606C37.9026 208.256 75.8707 232.407 119.493 232.407C183.394 232.407 235.198 180.604 235.198 116.703C235.204 85.6111 222.917 57.4055 202.961 36.6145Z" fill="#BABCBD"/>
<path opacity="0.6" d="M119.5 1C54.054 1 1 54.054 1 119.5C1 184.946 54.054 238 119.5 238C184.946 238 238 184.946 238 119.5C238 54.054 184.946 1 119.5 1ZM175.365 143.437C167.514 160.729 154.874 175.843 138.587 185.749C121.174 196.34 99.9571 200.709 79.7483 198.27C60.7491 195.977 42.9253 187.234 30.2162 172.805C17.2928 158.133 10.5373 139.022 9.46085 119.639C8.3624 99.861 11.9269 79.7167 20.3287 61.735C28.5218 44.1981 41.8639 28.92 59.961 21.4121C74.1983 13.0707 91.0994 9.09974 107.427 8.78256C117.832 8.58072 128.307 9.82746 138.019 13.7133C147.165 17.3725 155.389 23.0639 162.157 30.2134C176.311 45.1661 183.356 65.0523 185.071 85.3037C186.747 105.086 183.585 125.327 175.365 143.437Z" fill="#C6CAC9"/>
<path d="M236.502 100.707C236.372 104.057 236.181 107.403 235.859 110.725C234.278 127.145 230.855 143.978 222.869 158.569C216.27 170.625 206.882 180.945 195.968 189.237C184.719 197.781 171.884 204.146 158.494 208.567C144.856 213.069 130.544 215.57 116.196 216.106C102.19 216.631 88.0375 215.272 74.4757 211.677C60.1148 207.869 46.5969 201.413 35.3034 191.663C23.9344 181.847 15.3733 169.18 9.76293 155.295C4.31596 141.814 1.66594 127.281 1.20184 112.771C1.07689 114.999 1 117.241 1 119.501C1 184.947 54.054 238.001 119.5 238.001C184.946 238.001 238 184.947 238 119.501C238 113.103 237.477 106.829 236.502 100.707Z" fill="#C6CAC9"/>
<path d="M159.993 121.249C157.588 118.201 152.673 120.001 150.487 122.411C150.144 122.79 149.848 123.209 149.576 123.645C149.098 124.196 148.682 124.793 148.367 125.485C147.997 126.302 147.804 127.215 147.723 128.105C147.577 129.736 147.84 131.483 148.458 133C149.033 134.413 149.872 135.96 151.267 136.721C153.471 137.921 156.002 137.044 157.648 135.293C159.493 133.33 160.341 130.549 160.835 127.962C161.027 126.956 161.11 125.929 161.048 124.906C160.971 123.645 160.809 122.283 159.993 121.249Z" fill="#CCCCC5"/>
<path d="M173.205 122.996C173.132 122.838 173.061 122.68 172.988 122.522C172.918 122.416 172.8 122.381 172.709 122.305C172.705 122.291 172.713 122.278 172.709 122.264C172.656 122.149 172.603 122.032 172.55 121.917C172.437 121.745 172.288 121.628 172.1 121.566C171.983 121.492 171.855 121.454 171.715 121.454C171.498 121.406 171.278 121.41 171.059 121.469C170.905 121.518 170.751 121.569 170.596 121.619C170.286 121.756 170.015 121.951 169.778 122.193C169.866 122.117 169.952 122.043 170.04 121.967C169.846 122.132 169.639 122.278 169.433 122.425C169.33 122.499 169.227 122.573 169.128 122.653C168.932 122.808 168.745 122.975 168.556 123.14C168.504 123.185 168.451 123.231 168.402 123.279C168.344 123.353 168.285 123.428 168.228 123.502C168.044 123.706 167.91 123.939 167.825 124.203C167.809 124.282 167.792 124.362 167.776 124.442C167.721 124.594 167.71 124.751 167.746 124.908C167.755 125.024 167.754 125.101 167.781 125.198C167.796 125.253 167.817 125.308 167.839 125.362C167.913 125.543 167.991 125.73 168.089 125.901C168.118 125.951 168.149 125.997 168.185 126.041C168.195 126.054 168.206 126.066 168.217 126.078C168.273 126.135 168.329 126.19 168.385 126.246C168.484 126.38 168.615 126.47 168.775 126.514L168.995 126.617C169.167 126.641 169.337 126.666 169.509 126.691C169.521 126.691 169.532 126.692 169.544 126.692C169.569 126.692 169.594 126.692 169.62 126.691C169.719 126.685 169.861 126.667 169.922 126.661C169.993 126.654 170.135 126.647 170.235 126.629C170.256 126.625 170.276 126.621 170.297 126.615C170.398 126.588 170.582 126.523 170.607 126.515C170.618 126.511 170.821 126.453 170.919 126.413C170.937 126.407 170.953 126.398 170.971 126.39C171.051 126.352 171.483 126.107 171.56 126.058C171.57 126.052 171.579 126.047 171.587 126.04C171.605 126.028 171.62 126.015 171.637 126.001C171.734 125.923 172.067 125.642 172.155 125.557C172.164 125.547 172.174 125.539 172.183 125.529C172.196 125.515 172.208 125.502 172.22 125.488C172.366 125.315 172.509 125.127 172.643 124.946C172.695 124.876 172.742 124.803 172.794 124.734C172.757 124.782 172.719 124.83 172.682 124.878C172.818 124.73 172.928 124.565 172.996 124.374C173.062 124.284 173.107 124.188 173.132 124.082C173.171 123.897 173.209 123.711 173.247 123.526C173.235 123.349 173.22 123.172 173.205 122.996Z" fill="#CCCCC5"/>
<path d="M174.008 100.145C173.988 100.012 173.955 99.8815 173.904 99.7565C173.793 99.4792 173.676 99.1661 173.492 98.919C173.46 98.8764 173.426 98.838 173.39 98.7995C173.22 98.6155 173.039 98.4247 172.841 98.2681C172.61 98.0855 172.246 97.9455 172.014 97.848C171.922 97.8095 171.832 97.7766 171.734 97.756C171.423 97.6901 171.094 97.6324 170.773 97.6255C170.492 97.6187 170.205 97.6448 169.922 97.6901C169.911 97.6791 169.9 97.6681 169.888 97.6571C169.693 97.5198 169.48 97.4457 169.246 97.4347C168.8 97.3702 168.391 97.4553 167.969 97.6228C166.426 98.2324 165.212 99.5561 164.59 101.079C164.393 101.562 164.279 102.111 164.276 102.635C164.273 103.119 164.318 103.635 164.476 104.098C164.796 105.043 165.345 105.865 166.186 106.426C167.167 107.08 168.369 107.288 169.521 107.053C169.885 106.979 170.253 106.865 170.588 106.703C170.873 106.564 171.155 106.401 171.423 106.233C171.489 106.192 171.549 106.147 171.609 106.097C171.861 105.894 172.12 105.687 172.347 105.455C172.572 105.224 172.76 104.954 172.952 104.697C173.066 104.547 173.161 104.389 173.245 104.222C173.441 103.83 173.642 103.438 173.766 103.016C173.889 102.608 173.971 102.186 174.04 101.767C174.126 101.231 174.088 100.676 174.008 100.145Z" fill="#CCCCC5"/>
<path d="M192.35 112.879C190.157 112.879 188.104 116.777 191.014 116.777C193.206 116.778 195.259 112.879 192.35 112.879Z" fill="#CCCCC5"/>
<path d="M195.288 166.852C194.817 166.01 193.471 165.826 192.639 166.054C191.524 166.36 190.451 166.83 189.551 167.57C188.627 168.329 187.784 169.184 187.227 170.258C186.86 170.964 186.533 171.701 186.379 172.483C186.255 172.769 186.116 173.052 186.029 173.349C185.685 174.52 185.62 175.701 186.231 176.797C186.835 177.879 188.192 178.35 189.365 178.388C190.977 178.44 192.589 177.6 193.664 176.434C194.486 175.542 195.09 174.445 195.451 173.29C196.082 171.282 196.356 168.76 195.288 166.852Z" fill="#CCCCC5"/>
<path d="M202.311 161.998C200.011 161.998 197.86 166.085 200.911 166.085C203.209 166.085 205.362 161.998 202.311 161.998Z" fill="#CCCCC5"/>
<path d="M168.476 189.237C166.709 189.237 165.054 192.378 167.399 192.378C169.167 192.378 170.821 189.237 168.476 189.237Z" fill="#CCCCC5"/>
<path d="M41.1884 154.563C40.8369 153.537 40.3426 152.522 39.722 151.63C39.1522 150.811 38.4299 150.007 37.5923 149.462C36.6175 148.827 35.4408 148.547 34.2874 148.695C33.7354 148.592 33.1491 148.664 32.6369 148.893C32.0314 149.164 31.5302 149.604 31.117 150.122C31.1087 150.129 31.1005 150.134 31.0922 150.141C31.0785 150.159 31.0689 150.178 31.0552 150.196C30.9687 150.312 30.8533 150.402 30.7792 150.527C30.8725 150.406 30.9673 150.285 31.0607 150.165C30.267 150.833 29.6409 151.685 29.3718 152.665C29.0093 153.986 29.2784 155.315 30.1819 156.359C30.3302 156.53 30.4936 156.705 30.6625 156.879C30.668 156.901 30.6707 156.924 30.6762 156.946C30.9673 158.074 31.3806 159.151 31.8941 160.196C32.3074 161.037 32.8759 161.856 33.6516 162.401C35.1332 163.442 37.0788 163.045 38.489 162.084C39.2524 161.564 39.8565 160.866 40.3687 160.106C40.9413 159.256 41.3683 158.306 41.5207 157.291C41.6553 156.401 41.4795 155.41 41.1884 154.563Z" fill="#CCCCC5"/>
<path d="M31.1705 150.023C31.1334 150.07 31.0977 150.118 31.0606 150.165C31.0702 150.156 31.0826 150.15 31.0922 150.141C31.1224 150.104 31.1389 150.059 31.1705 150.023Z" fill="#CCCCC5"/>
<path d="M48.2281 166.653C45.8225 166.653 43.5707 170.93 46.763 170.93C49.1687 170.93 51.4205 166.653 48.2281 166.653Z" fill="#CCCCC5"/>
<path d="M39.818 173.733C38.0935 173.733 36.4787 176.799 38.7676 176.799C40.4936 176.799 42.1069 173.733 39.818 173.733Z" fill="#CCCCC5"/>
<path d="M25.4049 129.683C25.1701 128.775 24.7912 127.9 24.3642 127.068C24.003 126.365 23.517 125.768 22.9046 125.263C22.1576 124.646 20.8958 124.866 20.0994 125.212C19.7946 125.346 19.5172 125.519 19.255 125.714C19.0476 125.739 18.8375 125.798 18.6385 125.883C17.9753 126.169 17.3615 126.644 16.9743 127.252C16.7354 127.628 16.5459 128.042 16.3839 128.456C16.0763 129.24 15.9445 130.085 15.9335 130.925C15.9225 131.783 15.9967 132.679 16.2328 133.507C16.447 134.255 16.7862 135.037 17.3299 135.607C17.827 136.129 18.2265 136.408 18.8938 136.687C19.3497 136.877 19.8742 136.942 20.363 136.957C21.8432 137.004 23.3014 136.341 24.3161 135.279C25.7729 133.758 25.9075 131.628 25.4049 129.683Z" fill="#CCCCC5"/>
<path d="M55.4917 181.818C55.2102 181.123 54.8752 180.404 54.4344 179.789C54.2134 179.48 53.9552 179.215 53.6848 178.95C53.4115 178.68 53.1424 178.425 52.8211 178.216C52.6247 178.126 52.4284 178.034 52.232 177.943C51.8805 177.836 51.5277 177.814 51.172 177.88C50.9084 177.88 50.6558 177.932 50.4155 178.041C50.0036 178.146 49.6246 178.329 49.2799 178.588C49.2003 178.646 49.1262 178.709 49.0493 178.768C48.9916 178.789 48.9312 178.8 48.8749 178.826C48.4973 178.994 48.165 179.227 47.8794 179.524C47.6185 179.793 47.4249 180.102 47.2986 180.453C47.2272 180.798 47.1737 181.114 47.1462 181.432C47.1352 181.486 47.1242 181.538 47.1132 181.59C47.0995 181.762 47.127 181.922 47.1544 182.083C47.1586 182.126 47.1489 182.163 47.1558 182.207C47.1943 182.461 47.2574 182.71 47.3508 182.949C47.4922 183.312 47.6529 183.683 47.8725 184.005C48.0909 184.328 48.3847 184.609 48.6772 184.861C49.2772 185.377 50.0846 185.593 50.8562 185.647C52.0302 185.73 53.1479 185.23 54.12 184.631C54.3122 184.467 54.5045 184.302 54.6967 184.137C54.9521 183.89 55.1457 183.604 55.2748 183.279C55.4684 182.878 55.673 182.263 55.4917 181.818Z" fill="#CCCCC5"/>
</svg>
