<svg width="30" height="30" viewBox="0 0 30 30" fill="none" xmlns="http://www.w3.org/2000/svg">
<g clip-path="url(#clip0_45_861)">
<path d="M27.5832 23.0252C25.9489 22.9805 24.701 23.1333 23.6335 23.5828C23.3304 23.711 22.8471 23.7138 22.7977 24.0938C22.9643 24.2686 22.9899 24.5295 23.1228 24.7446C23.3773 25.1557 23.8076 25.7086 24.1913 25.999C24.6106 26.3149 25.0428 26.6536 25.4923 26.9274C26.2924 27.4153 27.1852 27.6938 27.9542 28.1817C28.4084 28.47 28.8586 28.8326 29.3018 29.1577C29.5207 29.318 29.6682 29.5678 29.9517 29.6686V29.6229C29.8024 29.4326 29.764 29.1706 29.6267 28.972L29.0224 28.3678C28.4318 27.5841 27.6821 26.8957 26.8857 26.3243C26.2503 25.8675 24.8276 25.2513 24.563 24.5126L24.5164 24.466C24.9668 24.4146 25.4942 24.2517 25.9107 24.1399C26.6091 23.9531 27.2337 24.0017 27.9542 23.8149L28.9301 23.5367V23.3508C28.5657 22.9772 28.3057 22.482 27.9085 22.1433C26.8676 21.2571 25.7323 20.3726 24.5632 19.6348C23.9149 19.2256 23.1139 18.9591 22.4264 18.6122C22.1949 18.496 21.7892 18.4345 21.6364 18.2405C21.2757 17.7809 21.0788 17.1977 20.8006 16.6613C20.2174 15.5379 19.6451 14.3121 19.1278 13.1302C18.7753 12.3246 18.5457 11.5299 18.1062 10.8075C15.9968 7.33947 13.7264 5.2458 10.2089 3.18845C9.4601 2.75087 8.55917 2.5779 7.6069 2.35173L6.07339 2.25915C5.7612 2.12908 5.43706 1.74728 5.14409 1.56142C3.97901 0.82478 0.989793 -0.77647 0.126355 1.32915C-0.418332 2.65759 0.941277 3.95392 1.42737 4.62775C1.76886 5.09931 2.2055 5.62923 2.44901 6.16033C2.61026 6.51001 2.63768 6.8597 2.77503 7.22884C3.11206 8.13892 3.40667 9.12939 3.84354 9.96986C4.06409 10.3955 4.3076 10.8434 4.58698 11.2242C4.75737 11.4577 5.05104 11.5613 5.09792 11.921C4.81034 12.323 4.79393 12.9464 4.63292 13.4545C3.90682 15.7444 4.18151 18.5897 5.23714 20.2835C5.56128 20.8045 6.32487 21.9195 7.37393 21.492C8.29221 21.1174 8.08714 19.9594 8.34987 18.9368C8.4094 18.7052 8.37284 18.5349 8.48909 18.3792V18.4259L9.32581 20.0977C9.94479 21.0947 11.0424 22.1365 11.9735 22.8396C12.4561 23.2041 12.836 23.8338 13.4604 24.0471V24.0005H13.4138C13.2928 23.8118 13.1035 23.734 12.9497 23.5831C12.5862 23.2261 12.1817 22.7829 11.8812 22.3746C11.0344 21.2257 10.2863 19.9676 9.60518 18.6586C9.27917 18.0333 8.99628 17.344 8.72159 16.7077C8.61542 16.4623 8.61729 16.0906 8.39651 15.9642C8.09628 16.4302 7.65307 16.8075 7.42057 17.3576C7.04979 18.2374 7.00128 19.3113 6.86393 20.4237C6.78237 20.453 6.81823 20.4328 6.77065 20.4703C6.12331 20.3138 5.89643 19.6481 5.6555 19.076C5.04753 17.6313 4.93409 15.3049 5.46964 13.6406C5.60792 13.2103 6.23417 11.8554 5.98057 11.4572C5.85964 11.0609 5.4605 10.831 5.23714 10.5279C4.96057 10.1534 4.68518 9.66001 4.4937 9.22689C3.99565 8.10072 3.76409 6.83556 3.23932 5.69673C2.98854 5.15205 2.5655 4.6008 2.21768 4.11751C1.83214 3.58103 1.40112 3.1854 1.10253 2.53736C0.996355 2.30673 0.852683 1.93759 1.00925 1.70158C1.05964 1.54126 1.13018 1.47447 1.28839 1.42244C1.55745 1.21455 2.30839 1.49205 2.58846 1.6083C3.33378 1.91767 3.95534 2.21251 4.58698 2.63087C4.88909 2.83126 5.19589 3.21962 5.56198 3.32767H5.98034C6.63401 3.4779 7.36643 3.37337 7.97792 3.55923C9.05815 3.88783 10.0259 4.39876 10.9048 4.95353C13.5818 6.64455 15.7718 9.0504 17.2695 11.9224C17.5102 12.3849 17.6147 12.8252 17.8271 13.3158C18.2546 14.3046 18.7939 15.3218 19.2195 16.2895C19.6451 17.2535 20.059 18.2278 20.6604 19.0306C20.9764 19.4527 22.1958 19.6788 22.7506 19.9132C23.1396 20.077 23.7769 20.2484 24.1449 20.4708C24.848 20.8948 25.5291 21.4001 26.1893 21.8642C26.5179 22.0967 27.5323 22.6067 27.5827 23.026L27.5832 23.0252ZM6.81635 5.32525C6.47581 5.31892 6.23511 5.36181 5.98057 5.41783V5.46447H6.02628C6.18917 5.79775 6.47581 6.0129 6.67714 6.30025L7.1412 7.27619L7.18784 7.23048C7.47542 7.02728 7.60714 6.70314 7.60526 6.2079C7.48995 6.08603 7.47354 5.93509 7.37276 5.78955C7.24104 5.59642 6.9837 5.48744 6.81612 5.32548L6.81635 5.32525Z" fill="#00618A"/>
</g>
<defs>
<clipPath id="clip0_45_861">
<rect width="30" height="30" fill="white"/>
</clipPath>
</defs>
</svg>
