<svg width="20" height="20" viewBox="0 0 20 20" fill="none" xmlns="http://www.w3.org/2000/svg">
<g clip-path="url(#clip0_132_492)">
<path d="M11.9371 0C11.9043 0.02625 11.8724 0.0727295 11.8375 0.0750732L10.4065 0.15686L8.70334 0.274048L7.675 0.352173L5.81995 0.507202L5.20496 0.546265L3.77397 0.626221C3.23262 0.660908 2.6902 0.687256 2.15143 0.74585C1.11357 0.858818 0.2409 1.46799 0.0405547 2.60986C0.0215203 2.71611 0.00211785 2.82403 0.00211785 2.93091C-0.000192529 6.63981 -0.000612593 10.3487 0.000857624 14.0576C0.000389679 14.5536 0.15746 15.0378 0.450758 15.4443C0.949847 16.1401 1.49161 16.8065 2.01974 17.4829C2.44946 18.0334 2.8741 18.5877 3.32092 19.1254C3.64354 19.5143 4.06312 19.782 4.5635 19.9225C4.59883 19.9322 4.62905 19.9567 4.66873 19.9872C5.49673 20 6.31708 20 7.13814 20C7.17089 19.9738 7.20302 19.9266 7.2377 19.9249L8.31645 19.8822L10.404 19.765L11.675 19.6881L13.7424 19.5703L15.0335 19.4922C15.716 19.4525 16.3995 19.4256 17.0807 19.3707C17.5174 19.3359 17.9621 19.3023 18.3831 19.1943C19.1814 18.9892 19.6887 18.4637 19.9175 17.6959C19.9678 17.5275 19.9989 17.3474 19.9994 17.1722L20 4.61426C19.9992 4.2152 19.8601 3.84102 19.5501 3.57727C19.133 3.22211 18.6869 2.89538 18.2344 2.58179C17.2609 1.90538 16.2868 1.22874 15.2893 0.586548C14.9452 0.36436 14.5312 0.244702 14.1494 0.0775146C14.1154 0.0628271 14.0832 0.0432715 14.0435 0.0134277L11.9371 0ZM13.2023 1.16608C13.797 1.17155 14.3242 1.35958 14.8243 1.71204L18.3768 4.13696C18.6717 4.33649 18.799 4.58621 18.7984 4.94324L18.7927 16.7969V16.9531C18.7782 17.677 18.4185 18.067 17.6736 18.125L15.1601 18.2819L10.1116 18.5773L5.62587 18.8361C4.9637 18.8787 4.44254 18.6785 4.07895 18.1274C4.00394 18.0126 3.90831 17.9101 3.82249 17.8021L1.83007 15.3137C1.41099 14.795 1.19688 14.231 1.20059 13.5529L1.2113 3.20251C1.21042 3.07262 1.2216 2.9429 1.2447 2.81494C1.33923 2.31369 1.66617 2.00122 2.19365 1.95435L4.80484 1.7572L8.96484 1.45996L12.9434 1.17493C13.0312 1.16821 13.1174 1.16529 13.2023 1.16608ZM13.0574 2.16492L11.4298 2.27478L3.69489 2.81921C3.46116 2.83562 3.22614 2.85214 2.99547 2.89246C2.91868 2.90589 2.82054 2.98165 2.79667 3.04993C2.77892 3.09836 2.85692 3.19517 2.91418 3.24829C3.02016 3.34657 3.14226 3.42886 3.25759 3.51746C3.53182 3.72683 3.82368 3.91792 4.07517 4.14917C4.55216 4.58792 5.10719 4.68931 5.74307 4.64478L10.7493 4.34082L16.1387 4.02771L16.345 3.99109C16.2461 3.89156 16.1889 3.81535 16.1141 3.7616C15.85 3.57268 15.5833 3.38712 15.3142 3.20496C14.9048 2.92621 14.4943 2.64911 14.0826 2.37366C13.7531 2.20084 13.4102 2.14617 13.0574 2.16492ZM16.9622 5.19897L13.2408 5.40649L8.01148 5.70312L5.39714 5.8551C5.06388 5.87588 4.91313 6.01494 4.86281 6.33057C4.84958 6.41354 4.84705 6.49888 4.84705 6.58325L4.84642 10.5859V15.838L4.84768 16.8146C4.85639 17.2516 5.07764 17.4695 5.52947 17.4945L5.87162 17.4902L9.65292 17.2742L16.874 16.8744C17.3241 16.85 17.532 16.6588 17.5741 16.2268L17.5797 15.9924L17.5804 5.91797C17.5804 5.85938 17.5823 5.80078 17.5785 5.74219C17.5515 5.34172 17.3737 5.17772 16.9622 5.19897ZM15.7852 7.08557C15.881 7.5201 15.7758 7.68241 15.3561 7.76428C14.941 7.84538 14.9408 7.84555 14.9408 8.25195L14.9459 15.2051C14.9465 15.3632 14.8968 15.4474 14.7512 15.4932C14.4715 15.5805 14.1974 15.6929 13.9119 15.752C13.4557 15.8473 13.0499 15.7301 12.7745 15.3473C12.3881 14.8088 12.0115 14.2639 11.6447 13.7128L9.14946 9.93896L9.06881 9.82971V14.9176L10.1545 15.1575C10.1092 15.484 9.92768 15.6842 9.59054 15.7379L8.80857 15.8002L6.82309 15.9106C6.7355 15.6391 6.84691 15.4265 7.10727 15.3522L7.69453 15.1917V8.42712L6.83254 8.35571C6.72172 7.9779 6.96368 7.61359 7.36372 7.57812L8.9913 7.46277L9.87598 7.40479C10.0095 7.39072 10.0808 7.42608 10.1532 7.53296L12.2288 10.5963V10.5969C12.7115 11.3067 13.1933 12.0169 13.6743 12.7277V8.01208L12.915 7.93091C12.7619 7.92231 12.7353 7.85401 12.7556 7.7301C12.7971 7.47307 13.0038 7.25218 13.2767 7.23328L15.7852 7.08557Z" fill="#EDEDED"/>
</g>
<defs>
<clipPath id="clip0_132_492">
<rect width="20" height="20" fill="white"/>
</clipPath>
</defs>
</svg>
