<svg width="20" height="20" viewBox="0 0 20 20" fill="none" xmlns="http://www.w3.org/2000/svg">
<g clip-path="url(#clip0_38_137)">
<path d="M3.54172 0.25H16.4583C18.4167 0.25 20 1.83328 20 3.79172V16.2083C20 18.1667 18.4167 19.75 16.4583 19.75H3.54172C1.58328 19.75 0 18.1667 0 16.2083V3.79172C0 1.83328 1.58328 0.25 3.54172 0.25Z" fill="#001E36"/>
<path d="M7.16672 5.2085C6.91672 5.2085 6.66672 5.2085 6.40844 5.21693C6.15 5.22521 5.90828 5.22521 5.68328 5.23365C5.45828 5.24193 5.25 5.24193 5.05 5.25021C4.85828 5.2585 4.725 5.2585 4.58328 5.2585C4.525 5.2585 4.5 5.29178 4.5 5.35022V13.9252C4.5 14.0002 4.53328 14.0337 4.6 14.0337H6.21672C6.275 14.0252 6.31672 13.9752 6.30828 13.9169V11.2419C6.46656 11.2419 6.58328 11.2419 6.66672 11.2502C6.75 11.2585 6.88328 11.2585 7.08328 11.2585C7.76672 11.2585 8.39172 11.1835 8.95828 10.9752C9.5 10.7752 9.96672 10.4252 10.3 9.9585C10.6333 9.49193 10.8 8.90021 10.8 8.1835C10.8 7.8085 10.7334 7.45021 10.6084 7.10021C10.4761 6.74359 10.2686 6.4196 10 6.15021C9.6831 5.84234 9.30163 5.60888 8.88328 5.46678C8.41656 5.29178 7.85 5.2085 7.16672 5.2085ZM7.35266 6.8499C7.64953 6.85553 7.93859 6.9074 8.20828 7.01678C8.45 7.1085 8.65 7.27521 8.79172 7.49178C8.9248 7.71584 8.9913 7.97317 8.98344 8.23365C8.98344 8.60021 8.9 8.88365 8.725 9.09193C8.54156 9.30021 8.30828 9.45865 8.04172 9.53365C7.73328 9.63365 7.40828 9.6835 7.08328 9.6835H6.64156C6.54156 9.6835 6.43344 9.67521 6.31672 9.66693V6.86693C6.375 6.8585 6.49172 6.85021 6.65844 6.85865C6.81672 6.85021 7.00828 6.85021 7.225 6.85021C7.26766 6.84912 7.31031 6.84897 7.35266 6.8499ZM14.3417 7.27537C13.75 7.27537 13.2583 7.36693 12.8667 7.56693C12.5084 7.73365 12.2 8.00021 11.9917 8.3335C11.8084 8.64193 11.7083 8.9835 11.7083 9.34193C11.7011 9.63674 11.767 9.92874 11.9 10.1919C12.0559 10.4722 12.2723 10.7141 12.5334 10.9002C12.9 11.1509 13.2978 11.3526 13.7167 11.5002C14.125 11.6585 14.4 11.7835 14.5334 11.8918C14.6667 12.0002 14.7334 12.1085 14.7334 12.2252C14.7334 12.3752 14.6417 12.5169 14.5084 12.5752C14.3584 12.6502 14.1334 12.6919 13.8167 12.6919C13.4834 12.6919 13.15 12.6502 12.8333 12.5669C12.4696 12.4856 12.121 12.3479 11.8 12.1587C11.775 12.1419 11.75 12.1337 11.725 12.1504C11.7 12.1669 11.6917 12.2002 11.6917 12.2252V13.6752C11.6834 13.7419 11.725 13.8002 11.7834 13.8335C12.0537 13.9598 12.3395 14.0495 12.6334 14.1002C13.0084 14.1752 13.3833 14.2085 13.7666 14.2085C14.3666 14.2085 14.8667 14.1169 15.275 13.9419C15.65 13.7919 15.975 13.5337 16.2083 13.2002C16.4267 12.8724 16.54 12.4858 16.5333 12.0919C16.5414 11.7944 16.4756 11.4995 16.3417 11.2337C16.1833 10.9502 15.9583 10.7169 15.6833 10.5419C15.281 10.2893 14.8502 10.0851 14.4 9.9335C14.1989 9.85032 14.0015 9.75857 13.8083 9.6585C13.7 9.60021 13.6 9.52522 13.525 9.4335C13.475 9.36678 13.4417 9.29193 13.4417 9.21693C13.4417 9.14193 13.4667 9.05865 13.5083 8.99193C13.5667 8.90865 13.6583 8.85021 13.7666 8.82521C13.925 8.78365 14.1 8.7585 14.2666 8.76678C14.5833 8.76678 14.8916 8.8085 15.2 8.87521C15.4834 8.9335 15.75 9.02521 16 9.15865C16.0333 9.17521 16.075 9.17521 16.15 9.15865C16.1631 9.14904 16.1736 9.13646 16.1809 9.12195C16.1882 9.10745 16.1919 9.09143 16.1917 9.07522V7.71693C16.1917 7.6835 16.1833 7.65022 16.175 7.61693C16.1583 7.58365 16.125 7.55021 16.0917 7.54193C15.8619 7.44793 15.6211 7.38351 15.375 7.35021C15.0328 7.30038 14.6875 7.27547 14.3417 7.27537Z" fill="#31A8FF"/>
</g>
<defs>
<clipPath id="clip0_38_137">
<rect width="20" height="20" fill="white"/>
</clipPath>
</defs>
</svg>
