<svg width="21" height="20" viewBox="0 0 21 20" fill="none" xmlns="http://www.w3.org/2000/svg">
<g clip-path="url(#clip0_38_116)">
<path d="M10.5 0C16.0225 0 20.5 4.4775 20.5 10C20.5 15.5225 16.0225 20 10.5 20C4.9775 20 0.5 15.5225 0.5 10C0.5 4.4775 4.9775 0 10.5 0ZM8.5125 13.3317C8.65833 13.8692 8.6425 14.3717 8.4925 14.825L8.43833 14.975C8.41833 15.0258 8.395 15.075 8.37333 15.1217C8.25667 15.3633 8.10167 15.5883 7.91083 15.7967C7.32917 16.4292 6.5175 16.6692 6.16917 16.4675C5.79417 16.2492 5.98083 15.355 6.65583 14.6425C7.38167 13.8775 8.4225 13.385 8.4225 13.385V13.3825L8.5125 13.3317ZM16.7717 4.28083C16.32 2.50333 13.3742 1.91917 10.5867 2.91C8.92917 3.49917 7.13333 4.425 5.8425 5.6325C4.30667 7.06667 4.0625 8.31667 4.16333 8.83917C4.51917 10.6817 7.04417 11.8867 8.0825 12.7808V12.7858C7.77667 12.9358 5.53583 14.06 5.01083 15.2233C4.44833 16.4483 5.09833 17.3242 5.52333 17.4358C6.83583 17.7992 8.18583 17.1358 8.91083 16.0617C9.61083 15.0108 9.54917 13.6608 9.2475 12.9983C9.66083 12.8858 10.1475 12.8358 10.7725 12.9117C12.5233 13.1117 12.8733 14.2117 12.7975 14.6617C12.7225 15.1108 12.3617 15.3733 12.2358 15.4483C12.1108 15.5242 12.0733 15.5483 12.085 15.5992C12.0975 15.6742 12.1608 15.6742 12.26 15.6617C12.3975 15.6367 13.1733 15.2867 13.2108 14.4358C13.2483 13.3608 12.2225 12.1617 10.3983 12.1858C9.64833 12.1992 9.1725 12.2617 8.83583 12.3992C8.81083 12.3617 8.785 12.3367 8.74833 12.3117C7.62333 11.0992 5.53583 10.2492 5.62333 8.63667C5.64833 8.04917 5.86083 6.5 9.62333 4.625C12.7108 3.08667 15.1742 3.5125 15.5992 4.45C16.21 5.78667 14.2858 8.275 11.0733 8.63667C9.84833 8.77417 9.21083 8.3 9.0475 8.12417C8.87333 7.93667 8.84833 7.92417 8.78583 7.9625C8.68583 8.0125 8.74833 8.175 8.78583 8.275C8.88583 8.525 9.27333 8.9625 9.94917 9.1875C10.5358 9.375 11.9742 9.48667 13.6992 8.8125C15.6358 8.06333 17.1483 5.975 16.7108 4.225L16.7717 4.28083Z" fill="#CC6699"/>
</g>
<defs>
<clipPath id="clip0_38_116">
<rect width="20" height="20" fill="white" transform="translate(0.5)"/>
</clipPath>
</defs>
</svg>
