<svg width="30" height="30" viewBox="0 0 30 30" fill="none" xmlns="http://www.w3.org/2000/svg">
<g clip-path="url(#clip0_45_955)">
<path d="M27.2934 1.55719C26.8733 2.56516 26.3354 3.51991 25.691 4.40156C22.8677 1.5799 19.0396 -0.00537455 15.048 -0.00585938C6.79313 -0.00585938 1.3947e-08 6.79289 1.3947e-08 15.057C-8.77671e-05 17.0977 0.414188 19.1172 1.21772 20.993C2.02125 22.8689 3.19731 24.562 4.67461 25.9699L5.22961 26.4621C7.94202 28.749 11.3751 30.0042 14.9229 30.0063C22.7714 30.0063 29.3691 23.8563 29.9278 16.0181C30.3382 12.1812 29.2127 7.3282 27.2934 1.55719ZM6.81258 26.0557C6.69175 26.2046 6.53924 26.3246 6.36615 26.4071C6.19307 26.4895 6.00376 26.5324 5.81203 26.5324C5.10469 26.5324 4.52602 25.9502 4.52602 25.2429C4.52602 24.5358 5.10844 23.9536 5.81203 23.9536C6.105 23.9536 6.39445 24.0551 6.62109 24.2428C7.17211 24.6881 7.25813 25.5047 6.81258 26.0557ZM27.2311 21.5468C23.5179 26.4973 15.5873 24.8287 10.5023 25.0671C10.5023 25.0671 9.59953 25.122 8.69273 25.2703C8.69273 25.2703 9.03258 25.1257 9.47438 24.9577C13.043 23.7152 14.7314 23.4729 16.9005 22.3594C20.985 20.2807 25.0226 15.7327 25.863 11.0009C24.3075 15.5529 19.5935 19.4641 15.2981 21.0544C12.3551 22.1407 7.03922 23.1956 7.03922 23.1956L6.8243 23.0822C3.20508 21.3202 3.09539 13.4782 9.67359 10.9462C12.5543 9.83648 15.3098 10.4461 18.4212 9.70359C21.7434 8.91445 25.5855 6.42141 27.1488 3.17062C28.8998 8.37141 31.0069 16.5141 27.2311 21.5468Z" fill="#77BC1F"/>
</g>
<defs>
<clipPath id="clip0_45_955">
<rect width="30" height="30" fill="white"/>
</clipPath>
</defs>
</svg>
