<svg width="30" height="30" viewBox="0 0 30 30" fill="none" xmlns="http://www.w3.org/2000/svg">
<g clip-path="url(#clip0_45_853)">
<path d="M2.15878 4.6683e-06H27.8414C28.1217 -0.000582416 28.3994 0.0542097 28.6586 0.161236C28.9177 0.268261 29.1531 0.425414 29.3514 0.623671C29.5496 0.821928 29.7067 1.05739 29.8137 1.31653C29.9207 1.57567 29.9755 1.85339 29.9749 2.13375V27.8663C29.9755 28.1466 29.9207 28.4243 29.8137 28.6835C29.7067 28.9426 29.5496 29.1781 29.3514 29.3763C29.1531 29.5746 28.9177 29.7317 28.6586 29.8388C28.3994 29.9458 28.1217 30.0006 27.8414 30H2.15855C1.87818 30.0006 1.60047 29.9458 1.34134 29.8388C1.08221 29.7317 0.846765 29.5746 0.64853 29.3763C0.450294 29.1781 0.293168 28.9426 0.186171 28.6835C0.0791733 28.4243 0.0244117 28.1466 0.0250296 27.8663V2.13375C0.0244117 1.85339 0.0791733 1.57567 0.186171 1.31653C0.293168 1.05739 0.450294 0.821928 0.64853 0.623671C0.846765 0.425414 1.08221 0.268261 1.34134 0.161236C1.60047 0.0542097 1.87818 -0.000582416 2.15855 4.6683e-06H2.15878Z" fill="#005F0F"/>
<path d="M25.5508 4.09057C21.8625 8.61025 17.3578 12.3959 12.554 15.6774C10.9924 16.7953 9.26855 17.7903 8.06785 19.321C7.60918 20.1265 7.49855 21.2611 8.28254 21.9148C9.58824 23.1453 11.6219 23.4129 13.2576 22.7241C15.5475 21.852 17.1293 19.8663 18.4586 17.8983C21.4253 13.6242 23.2246 8.70846 25.5508 4.09057Z" fill="#EDEDED"/>
<path d="M23.4354 5.65332C18.843 9.29199 15.1699 11.2584 10.4733 12.9501C9.05578 13.5567 7.53656 14.3264 6.8782 15.8146C6.20039 17.2225 6.42257 19.1861 7.20023 20.49C7.14211 19.9411 7.43531 19.0544 7.87148 18.6382C9.31898 17.0261 11.2043 15.97 12.8627 14.7459L12.8667 14.7426L12.8707 14.7398C16.7086 12.104 20.3072 9.09207 23.4354 5.65332Z" fill="#AEA99F"/>
</g>
<defs>
<clipPath id="clip0_45_853">
<rect width="30" height="30" fill="white"/>
</clipPath>
</defs>
</svg>
