<svg width="30" height="30" viewBox="0 0 30 30" fill="none" xmlns="http://www.w3.org/2000/svg">
<g clip-path="url(#clip0_45_945)">
<path d="M5.19102 18.3529C5.55104 18.7953 5.93088 19.2212 6.32938 19.6293C5.11391 19.9949 4.31704 20.6741 3.82016 21.2739C3.0336 22.2231 2.61735 23.4765 2.71321 24.5523H0.620239C1.03977 23.6413 2.71555 21.0097 5.19126 18.3531L5.19102 18.3529ZM29.4369 25.123H26.8923C21.054 22.0764 15.9282 19.9281 10.4832 19.4589C10.4947 18.7012 10.6295 17.8433 10.8889 16.8873L10.3873 16.7523C10.1211 17.7348 9.98141 18.6238 9.96547 19.4195C9.39805 19.3815 8.82711 19.3633 8.25055 19.3633C7.76282 19.3633 7.31774 19.408 6.9118 19.4865C6.38258 18.9583 5.93165 18.4534 5.54891 17.9748C8.06 15.3594 12.1965 12.9932 15.7965 12.103C16.8102 15.4724 18.9861 17.781 21.6268 19.3342C21.8205 19.2239 22.0108 19.1079 22.1975 18.9862L26.8044 23.9455L27.0059 23.9284C28.2641 23.8201 28.9791 24.5026 29.1683 24.715C29.3077 24.8694 29.3909 25.0112 29.4369 25.123Z" fill="#D1A41A"/>
<path d="M27.1893 8.53379C27.2828 13.1107 24.9477 16.7533 21.6784 18.6213C16.1296 15.8575 15.0848 8.85348 16.0305 5.09668C16.2934 6.5334 16.772 7.4341 17.8052 7.87566C20.0584 7.23113 23.1592 7.18027 25.4434 7.81004C26.395 7.11816 26.7639 6.06066 26.9657 5.13699C27.217 6.2116 27.1884 8.53379 27.1893 8.53379Z" fill="#FFDC76"/>
<path d="M11.507 13.6512L13.232 12.8673L14.0783 15.3755L11.507 13.6512ZM9.75103 14.5606L10.7551 13.9648L11.6638 15.5323L9.75103 14.5606ZM7.80688 15.8459L8.68485 15.1873L9.12384 16.7558L7.80688 15.8459ZM23.3288 19.9857L22.7014 19.3897L21.8863 20.6443L23.3288 19.9857ZM24.4899 21.365L23.9872 20.832L22.6705 21.8352L24.4899 21.365ZM22.389 7.19141L20.7896 7.22281L21.7618 9.35516L22.389 7.19141ZM16.0224 11.2365L15.8656 10.3271L17.4029 11.1425L16.0224 11.2365ZM16.3984 12.5848L16.2416 11.9893L17.1826 12.3655L16.3984 12.5848ZM26.998 11.6131L27.2183 10.9231L25.9637 11.4561L26.998 11.6131ZM26.5276 13.0241L26.7156 12.4597L25.7434 12.7419L26.5276 13.0241Z" fill="black"/>
<path d="M15.3605 14.8131H18.387V15.1867H15.3605V14.8131ZM15.3605 13.9163H18.387V14.2899H15.3605V13.9163ZM24.6019 14.8131H27.6281V15.1867H24.6019V14.8131ZM24.6019 13.9163H27.6281V14.2899H24.6019V13.9163ZM23.5352 11.7013H18.6033V11.3647H20.138C20.3271 10.5554 20.3644 9.78197 20.1366 9.38986C20.0391 9.22346 19.9045 9.14541 19.7128 9.14541C18.8353 9.14541 18.473 10.0733 18.4577 10.1127L18.458 10.1124L18.1432 9.99432C18.1613 9.9458 18.6002 8.80908 19.7128 8.80908C20.0234 8.80908 20.2702 8.95158 20.4267 9.22088C20.7047 9.6983 20.6721 10.5245 20.4837 11.3647H23.1766C23.5345 10.3135 24.2815 9.81783 25.5298 9.81783V10.1542C24.177 10.1542 23.7977 10.7277 23.5273 11.3647H24.9968L24.9933 11.6994L23.535 11.701L23.5352 11.7013ZM23.7565 13.3618L23.7588 13.3616L23.7565 13.3618ZM23.7565 13.3618L23.7588 13.3616L23.7565 13.3618Z" fill="black"/>
<path d="M23.7565 13.3619L23.7588 13.3617C23.3599 12.7734 23.2333 12.2713 23.4002 11.6997L23.0576 11.7013C22.9383 12.082 22.9861 12.6553 23.2802 13.1474H19.8583C20.0665 12.7303 20.2594 12.2219 20.4004 11.7013H20.0522C19.8965 12.2533 19.6783 12.7996 19.4325 13.2323L19.353 13.3722L21.2733 14.5809L20.1923 15.2934L20.3775 15.5742L21.5857 14.7775L22.8902 15.6288L23.0693 15.3442L21.8599 14.5961C21.8599 14.5961 23.6683 13.4214 23.7581 13.364C23.7574 13.3633 23.7572 13.3626 23.7567 13.3617L23.7565 13.3619ZM21.5817 14.3777L20.1614 13.4835L22.9371 13.4842L21.5817 14.3777Z" fill="black"/>
<path d="M27.7533 8.12844C27.7512 7.54367 27.5691 5.07266 27.2344 4.39227C26.3269 4.73703 24.6757 5.85453 24.3019 6.99688C22.5108 6.72969 20.4917 6.76109 18.7228 7.06719C18.4275 5.83789 16.9444 4.89734 15.8255 4.36719C15.3535 5.16359 15.1444 7.01023 15.1974 8.32016L15.1913 8.32438C15.3989 13.8247 18.0973 17.2494 21.6256 19.325C25.256 17.2508 27.8494 13.2069 27.7488 8.12586L27.7535 8.1282L27.7533 8.12844ZM24.7327 7.06789L24.7723 7.07516L24.7324 7.06813L24.7327 7.06789ZM24.5067 7.02898C24.5386 7.03414 24.5707 7.03977 24.6026 7.04539L24.5067 7.02898ZM27.1887 8.52523C27.282 13.1021 24.9469 16.7448 21.6778 18.6127C16.1292 15.8483 15.0839 8.84492 16.0301 5.08812C16.2933 6.52414 16.7707 7.42508 17.8053 7.86688C20.0576 7.22234 23.1584 7.17148 25.4426 7.80125C26.3944 7.10914 26.7635 6.05211 26.9651 5.12844C27.217 6.20328 27.1877 8.52477 27.1887 8.52523Z" fill="black"/>
<path d="M29.5556 24.36C28.9858 23.7225 27.8695 23.4209 26.9372 23.4431C26.2755 22.6556 22.4395 18.616 22.4395 18.616L22.1737 18.9509L26.805 23.9367L27.0058 23.9194C28.2642 23.8116 28.9793 24.4941 29.1689 24.7057C29.3076 24.8611 29.3915 25.0027 29.437 25.114H26.8917C21.0532 22.0671 15.9276 19.9191 10.4824 19.4508C10.4941 18.6931 10.6291 17.8353 10.8879 16.8797L10.3872 16.7438C10.1212 17.7263 9.98083 18.616 9.96513 19.4114C9.39794 19.3739 8.82677 19.3542 8.25067 19.3542C7.762 19.3542 7.31716 19.3997 6.91146 19.4785C6.382 18.9495 5.9313 18.4453 5.5481 17.9667C8.077 15.3321 12.2536 12.9506 15.8718 12.075L15.7544 11.5681C11.8579 12.5079 7.59278 15.0656 5.21622 17.5369C4.11325 16.0481 3.67567 14.8266 3.5456 13.9008C3.38153 12.7315 3.66044 11.659 4.35278 10.7989C5.4363 9.45284 6.97591 9.35791 8.55888 9.62416C8.52817 9.87424 8.56099 10.1133 8.66106 10.261C9.07966 10.8795 11.3299 11.0967 12.6729 10.4974C11.6817 9.10854 9.67403 8.43026 9.11786 8.70213C8.93364 8.79213 8.79442 8.9576 8.69927 9.15026C8.152 9.05229 7.60849 8.9794 7.21145 8.98245C5.81528 8.99276 4.74794 9.48049 3.94849 10.4738C3.16403 11.4481 2.84692 12.6581 3.03161 13.973C3.20646 15.2185 3.8231 16.5431 4.85646 17.9166C4.68489 18.1008 4.51896 18.2827 4.35911 18.4613C1.84052 21.2796 -0.000732422 24.3019 -0.000732422 24.8028V25.0622H3.322L3.26388 24.7545C3.07638 23.7626 3.45091 22.5232 4.21849 21.5965C4.7006 21.015 5.49864 20.351 6.75185 20.0449C7.86606 21.1324 9.28591 22.2872 10.8661 23.4014H13.3354V23.142C13.3354 22.8492 13.1901 22.5931 12.9267 22.4206C12.5365 22.1656 11.9343 22.1304 11.3812 22.3191C10.8539 21.7317 10.5581 20.9473 10.4943 19.9728C15.8533 20.4471 20.9793 22.6114 26.7628 25.6329H29.9451L29.9868 25.4243C30.0464 25.1274 29.8844 24.7294 29.5542 24.36H29.5556ZM3.82028 21.2649C3.03419 22.2136 2.61747 23.4668 2.7131 24.5426H0.619424C1.04013 23.6325 2.71544 21.0012 5.19091 18.3434C5.55092 18.786 5.93084 19.2121 6.3295 19.6203C5.11403 19.9856 4.31739 20.6649 3.82028 21.2649Z" fill="black"/>
</g>
<defs>
<clipPath id="clip0_45_945">
<rect width="30" height="30" fill="white"/>
</clipPath>
</defs>
</svg>
